<?xml version="1.0" encoding="UTF-8" standalone="no"?> <!-- Created with Inkscape (http://www.inkscape.org/) --> <svg xmlns:dc="http://purl.org/dc/elements/1.1/" xmlns:cc="http://creativecommons.org/ns#" xmlns:rdf="http://www.w3.org/1999/02/22-rdf-syntax-ns#" xmlns:svg="http://www.w3.org/2000/svg" xmlns="http://www.w3.org/2000/svg" xmlns:sodipodi="http://sodipodi.sourceforge.net/DTD/sodipodi-0.dtd" xmlns:inkscape="http://www.inkscape.org/namespaces/inkscape" id="svg2" inkscape:version="0.92.2 (5c3e80d, 2017-08-06)" width="1000" height="500.47299" sodipodi:docname="ITV_(2013)_(Print).svg"><metadata id="metadata8"></metadata><defs id="defs6"></defs><path sodipodi:nodetypes="ccccc" inkscape:connector-curvature="0" id="path3018" d="M 8.9004401e-7,65.683223 C 8.9004401e-7,29.560713 25.592053,-1.0799817e-4 66.716101,-1.0799817e-4 c 43.296009,0 66.509549,31.01197699817 66.509549,67.43902799817 0,40.05864 -29.33201,64.34076 -66.199723,64.34076 C 26.899437,131.77968 8.9004401e-7,104.40872 8.9004401e-7,65.683223 Z" style="fill:#000000;fill-opacity:1;stroke:none;stroke-width:1.72192895"></path><path style="fill:#000000;fill-opacity:1;stroke:none;stroke-width:1.72192895" d="m 343.72873,33.998109 c -53.35783,-10e-7 -66.15629,17.186277 -66.15629,37.019553 v 246.650538 9.57032 c 0,63.87449 -26.00866,95.15826 -76.28716,95.15826 -51.62613,0 -68.35551,-34.16714 -68.35551,-63.54496 V 186.54507 c 0,-5.78347 -3.9238,-10.48828 -9.86134,-10.48828 H 10.673834 c -6.8837437,0 -10.33203692,4.44326 -10.33203692,10.5918 V 336.19555 C 0.34179707,492.7451 143.42865,500.473 190.54308,500.473 c 94.92401,0 147.29696,-50.63089 147.29696,-50.63089 0,0 50.3142,50.11526 160.67198,50.11526 141.32687,0 191.463,-98.32818 191.463,-98.32818 l 42.84183,64.98051 c 13.59824,20.29503 27.19364,33.59181 66.23441,33.59181 48.39118,0 62.99758,-18.04022 77.33598,-39.28908 0,0 74.47443,-114.17286 122.03524,-252.58218 3.90922,-12.90861 0.14365,-15.64949 -6.79884,-18.12697 l -57.17972,-17.67384 c -9.09236,-2.39646 -15.37419,-0.49049 -17.7461,7.37696 0,0 -33.78299,115.09434 -86.75591,211.41223 C 746.53296,237.75513 713.7934,190.01968 713.7934,190.01968 l -0.002,0.006 c -8.14047,-13.5154 -19.44546,-20.13673 -32.37893,-20.13673 -19.43039,0 -43.41079,9.53023 -50.06448,13.90236 -30.79157,19.2918 -39.87254,31.92795 -39.94144,49.40432 0,11.88962 4.07779,17.9616 9.42774,27.97268 l 8.05469,12.69141 c 2.96179,5.34976 13.55275,26.24072 13.55275,51.76761 0,58.34494 -46.71632,95.94341 -113.08601,95.94341 -72.78685,0 -100.91608,-44.60996 -100.91608,-102.59381 V 294.8695 l -0.0156,0.0156 c 0.003,-0.57932 0.0156,-1.15925 0.0156,-1.73828 v -41.32621 c 0,0 18.43455,6.88869 36.16019,6.88869 h 68.35355 c 6.77687,0 9.13282,-4.55833 9.13282,-10.33205 v -61.05874 c 0,-6.90428 -2.87729,-11.26172 -10.33203,-11.26172 H 408.43969 V 73.724695 c 0,-17.028734 -6.39904,-39.726586 -64.71096,-39.726586 z" id="path3020" inkscape:connector-curvature="0"></path></svg> 