<svg xmlns="http://www.w3.org/2000/svg" xmlns:xlink="http://www.w3.org/1999/xlink" width="5000" zoomAndPan="magnify" viewBox="0 0 3750 3749.999967" height="5000" preserveAspectRatio="xMidYMid meet" version="1.0"><defs><clipPath id="id1"><path d="M 686 82.058594 L 1844 82.058594 L 1844 3643.808594 L 686 3643.808594 Z M 686 82.058594 " clip-rule="nonzero"/></clipPath><clipPath id="id2"><path d="M 91.65625 223 L 1900.136719 223 L 1900.136719 3597 L 91.65625 3597 Z M 91.65625 223 " clip-rule="nonzero"/></clipPath></defs><path fill="#ff0c99" d="M 1476.816406 514.15625 C 1476.816406 514.15625 1542.265625 574.167969 1643.230469 675.089844 C 1744.167969 776.042969 1727.820312 855.128906 1711.441406 961.539062 C 1695.066406 1067.917969 1692.335938 1074.289062 1692.335938 1074.289062 L 1788.75 1316.160156 L 1472.265625 1525.3125 L 1370.390625 1441.644531 L 1268.546875 1459.839844 L 1281.285156 1377.992188 L 1021.179688 1329.804688 L 969.320312 1185.214844 L 1291.261719 1185.214844 C 1291.261719 1185.214844 1212.164062 1067.917969 1141.222656 980.644531 C 1070.285156 893.339844 1086.660156 800.574219 1086.660156 800.574219 C 1086.660156 800.574219 903.867188 939.707031 797.445312 1018.824219 C 691.050781 1097.941406 562.816406 1084.292969 502.796875 1010.636719 C 442.773438 936.976562 285.339844 733.167969 285.339844 733.167969 L 388.210938 571.4375 L 650.132812 887.878906 C 650.132812 887.878906 740.152344 797.84375 838.386719 702.382812 C 936.59375 606.890625 1018.453125 519.613281 1122.117188 519.613281 L 1476.816406 514.15625 " fill-opacity="1" fill-rule="nonzero"/><g clip-path="url(#id1)"><path fill="#100f0d" d="M 1827.375 3491.691406 C 1827.375 3491.691406 1749.628906 3585.832031 1622.773438 3574.914062 C 1622.773438 3574.914062 1546.375 3614.445312 1525.917969 3628.089844 C 1505.460938 3641.738281 1620.046875 3654.035156 1696.414062 3632.199219 C 1772.8125 3610.367188 1760.546875 3600.828125 1779.652344 3592.640625 C 1798.730469 3584.453125 1797.378906 3618.554688 1797.378906 3618.554688 L 1821.945312 3611.714844 C 1821.945312 3611.714844 1865.589844 3539.4375 1827.375 3491.691406 Z M 762.164062 3456.445312 L 691.695312 3494.039062 C 682.480469 3498.9375 685.855469 3512.9375 696.300781 3513.054688 C 755.148438 3513.640625 864.449219 3511.441406 901.402344 3488.492188 C 952.941406 3456.445312 962.6875 3491.25 962.6875 3491.25 L 991.917969 3491.25 C 1029.515625 3407.730469 1000.285156 3367.347656 1000.285156 3367.347656 C 915.34375 3442.535156 762.164062 3456.445312 762.164062 3456.445312 Z M 1500.472656 243.992188 L 1252.636719 433.6875 C 1252.636719 433.6875 1191.707031 358.914062 1190.328125 252.328125 C 1190.210938 243.640625 1191.003906 235.363281 1192.46875 227.46875 C 1179.46875 218.8125 1165.378906 203.613281 1163.941406 177.699219 C 1161.210938 128.601562 1196.695312 85.875 1254.898438 82.234375 C 1291.96875 79.917969 1312.394531 104.480469 1322.375 122.675781 C 1349.640625 120.707031 1377.847656 125.34375 1403.558594 137.40625 C 1494.953125 180.3125 1500.472656 243.992188 1500.472656 243.992188 " fill-opacity="1" fill-rule="nonzero"/></g><path fill="#ffffff" d="M 822.921875 1349.351562 C 876.101562 1343.890625 887.019531 1240.242188 933.425781 1240.242188 C 934.570312 1240.242188 935.597656 1240.183594 936.625 1240.125 L 956.609375 1301.632812 L 1028.902344 1317.980469 L 983.878906 1192.496094 L 921.125 1192.496094 C 921.125 1192.496094 899.320312 1192.496094 874.753906 1192.496094 C 850.1875 1192.496094 820.191406 1223.867188 805.191406 1272.960938 C 790.164062 1322.085938 790.164062 1322.085938 790.164062 1322.085938 C 790.164062 1322.085938 727.414062 1319.359375 727.414062 1337.082031 C 727.414062 1354.808594 769.707031 1354.808594 822.921875 1349.351562 Z M 347.679688 529.386719 C 338.375 512.980469 312.898438 469.664062 289.976562 444.605469 C 261.332031 413.203125 231.335938 414.582031 168.582031 478.703125 C 168.582031 478.703125 109.914062 429.578125 97.644531 445.953125 C 85.347656 462.328125 156.285156 552.335938 250.414062 516.882812 L 289.359375 597.410156 L 261.332031 630.074219 L 298.164062 706.460938 L 390.941406 584.175781 L 351.378906 525.070312 Z M 1781.472656 1312.519531 C 1772.199219 1316.894531 1473.324219 1517.152344 1473.324219 1517.152344 L 1373.179688 1440.117188 L 1274.914062 1447.101562 L 919.304688 3196.613281 C 919.304688 3196.613281 904.777344 3273 890.21875 3333.015625 C 875.664062 3393.058594 757.4375 3469.414062 757.4375 3469.414062 C 757.4375 3469.414062 918.660156 3423.753906 964.125 3401.917969 C 1009.589844 3380.085938 989.835938 3362.125 1008.03125 3294.835938 C 1023.792969 3236.582031 1035.359375 3204.273438 1038.175781 3196.613281 L 1075.742188 3196.613281 C 1075.742188 3196.613281 1279.464844 2712.867188 1297.632812 2450.980469 C 1310.605469 2264.25 1454.070312 1933.285156 1516.730469 1796.355469 C 1524.65625 1779.011719 1550.398438 1783.351562 1552.21875 1802.339844 L 1694.15625 3287.558594 L 1710.5625 3287.558594 C 1710.796875 3301.554688 1712.46875 3396.3125 1714.171875 3458.5 C 1715.992188 3525.789062 1599.589844 3591.261719 1599.589844 3591.261719 C 1599.589844 3591.261719 1823.296875 3580.34375 1826.9375 3514.875 C 1830.574219 3449.429688 1843.3125 3289.375 1843.3125 3289.375 C 1843.3125 3289.375 1821.535156 3288.496094 1795.621094 3287.558594 L 1861.480469 3287.558594 C 1861.480469 3287.558594 1926.492188 2654.46875 1863.976562 2388.707031 C 1796.410156 2101.496094 2021.558594 1559.851562 1781.472656 1312.519531 Z M 1262.617188 445.953125 C 1262.617188 445.953125 1217.625 398.207031 1228.511719 370.914062 C 1239.429688 343.652344 1273.535156 368.214844 1273.535156 368.214844 C 1273.535156 368.214844 1299.453125 343.652344 1298.101562 294.554688 C 1296.722656 245.429688 1328.097656 229.085938 1384.039062 227.707031 C 1439.980469 226.355469 1495.894531 246.808594 1495.894531 246.808594 C 1495.894531 246.808594 1510.890625 383.210938 1505.460938 466.40625 C 1503.203125 500.507812 1484.945312 521.082031 1464.136719 533.492188 C 1464.285156 540.097656 1463.785156 561.695312 1453.160156 581.445312 C 1440.421875 605.070312 1293.992188 881.511719 1293.992188 881.511719 L 1278.554688 517.792969 L 1298.542969 491.410156 L 1301.535156 492.144531 L 1262.617188 445.953125 " fill-opacity="1" fill-rule="nonzero"/><g clip-path="url(#id2)"><path fill="#100f0d" d="M 732.050781 1337.082031 C 732.050781 1336.527344 732.199219 1335.761719 733.253906 1334.734375 C 740.886719 1327.429688 772.054688 1325.902344 789.988281 1326.695312 L 793.539062 1326.84375 L 809.59375 1274.3125 C 824.914062 1224.1875 854.589844 1197.132812 874.753906 1197.132812 L 917.78125 1197.132812 L 930.988281 1237.777344 C 908.152344 1240.476562 893.742188 1264.511719 878.566406 1289.867188 C 863.160156 1315.601562 847.222656 1342.21875 822.449219 1344.742188 C 772.085938 1349.90625 742.351562 1348.703125 733.988281 1341.164062 C 732.636719 1339.960938 732.050781 1338.699219 732.050781 1337.082031 Z M 980.621094 1197.132812 L 1021.710938 1311.609375 L 960.191406 1297.699219 L 927.496094 1197.132812 Z M 823.390625 1353.957031 C 852.769531 1350.933594 869.910156 1322.292969 886.492188 1294.621094 C 900.902344 1270.554688 914.523438 1247.871094 933.953125 1246.84375 L 953.03125 1305.535156 L 1036.089844 1324.347656 L 987.136719 1187.886719 L 874.753906 1187.886719 C 846.695312 1187.886719 815.582031 1223.101562 800.761719 1271.640625 L 786.789062 1317.332031 C 774.550781 1317.070312 738.246094 1317.15625 726.855469 1328.046875 C 724.214844 1330.597656 722.804688 1333.738281 722.804688 1337.082031 C 722.804688 1341.308594 724.539062 1345.09375 727.796875 1348.03125 C 734.574219 1354.132812 748.632812 1357.15625 771.792969 1357.15625 C 785.617188 1357.15625 802.699219 1356.070312 823.390625 1353.957031 Z M 299.046875 697.65625 L 266.820312 630.804688 L 350.90625 532.703125 L 385.246094 584 Z M 252.761719 511.074219 L 248.796875 512.570312 C 182.464844 537.515625 129.605469 497.046875 110.910156 472.128906 C 100.753906 458.601562 100.078125 450.386719 101.34375 448.710938 C 101.753906 448.15625 102.457031 447.507812 104.277344 447.304688 C 116.632812 445.867188 148.539062 467.933594 165.621094 482.226562 L 168.878906 484.984375 L 171.871094 481.933594 C 207.414062 445.601562 233.214844 428.933594 253.113281 429.195312 C 264.589844 429.402344 275.214844 435.273438 286.570312 447.714844 C 309.730469 473.070312 334.851562 514.039062 343.011719 527.710938 L 290.445312 589.046875 Z M 349.351562 520.316406 C 339.753906 504.324219 316.039062 466.289062 293.382812 441.464844 C 280.203125 427.054688 267.464844 420.21875 253.289062 419.953125 C 231.042969 419.835938 204.65625 435.800781 168.261719 472.453125 C 156.695312 463.152344 121.328125 436.09375 103.21875 438.117188 C 99.289062 438.558594 96.089844 440.320312 93.945312 443.195312 C 88.839844 449.972656 92.417969 462.886719 103.515625 477.675781 C 123.296875 504 178.535156 546.496094 248.0625 522.636719 L 283.871094 596.707031 L 255.871094 629.367188 L 297.285156 715.265625 L 396.605469 584.351562 L 351.816406 517.410156 Z M 1838.324219 3293.808594 C 1836.179688 3320.953125 1825.554688 3456.210938 1822.328125 3514.636719 C 1819.773438 3560.417969 1687.640625 3580.082031 1617.902344 3585.480469 C 1650.394531 3564.410156 1720.246094 3512.761719 1718.78125 3458.382812 C 1717.253906 3401.332031 1715.699219 3315.992188 1715.257812 3292.195312 L 1796.324219 3292.195312 C 1810.765625 3292.722656 1825.292969 3293.28125 1838.324219 3293.808594 Z M 1003.570312 3293.632812 C 997.378906 3316.523438 995.527344 3333.601562 994.0625 3347.335938 C 991.214844 3373.511719 990.039062 3384.339844 962.128906 3397.753906 C 928.785156 3413.714844 831.226562 3443.121094 783.328125 3457.148438 C 819.015625 3431.207031 883.851562 3378.941406 894.710938 3334.128906 C 907.300781 3282.214844 920.011719 3217.359375 923.121094 3201.25 L 1031.601562 3201.25 C 1026.847656 3214.777344 1016.601562 3245.414062 1003.570312 3293.632812 Z M 1876.65625 1982.585938 C 1905.507812 1727.828125 1935.328125 1464.417969 1784.789062 1309.320312 C 1783 1307.472656 1780.09375 1307.445312 1778.242188 1309.203125 C 1776.394531 1310.996094 1776.367188 1313.929688 1778.125 1315.75 C 1925.671875 1467.703125 1896.085938 1728.945312 1867.46875 1981.558594 C 1850.09375 2135.070312 1833.6875 2280.070312 1859.484375 2389.765625 C 1918.480469 2640.53125 1862.773438 3227.632812 1857.3125 3282.949219 L 1797.644531 3282.949219 C 1716.753906 3279.839844 1708.652344 3280.335938 1706.746094 3282.949219 L 1698.351562 3282.949219 L 1556.824219 1801.898438 C 1555.796875 1791.101562 1548.226562 1782.972656 1537.542969 1781.152344 C 1526.828125 1779.390625 1517.027344 1784.554688 1512.507812 1794.417969 C 1450.871094 1929.144531 1306.085938 2262.84375 1293.023438 2450.660156 C 1275.824219 2698.460938 1089.363281 3151.832031 1072.660156 3192.003906 L 1044.867188 3192.003906 L 1045.628906 3190.070312 L 925 3191.917969 L 1279.433594 1448.042969 C 1279.933594 1445.519531 1278.320312 1443.082031 1275.824219 1442.582031 C 1273.390625 1442.054688 1270.894531 1443.667969 1270.367188 1446.195312 L 915.519531 3192.0625 L 915.492188 3192.0625 L 914.816406 3195.613281 L 914.785156 3195.703125 L 914.785156 3195.761719 C 914.640625 3196.523438 900.082031 3272.738281 885.730469 3331.929688 C 871.757812 3389.476562 756.089844 3464.777344 754.914062 3465.542969 L 729.027344 3482.269531 L 758.703125 3473.875 C 765.304688 3472 920.804688 3427.832031 966.121094 3406.085938 C 998.699219 3390.445312 1000.3125 3375.476562 1003.25 3348.332031 C 1004.6875 3334.921875 1006.507812 3318.222656 1012.492188 3296.066406 C 1026.582031 3243.976562 1037.351562 3212.519531 1041.402344 3201.25 L 1075.742188 3201.25 C 1077.59375 3201.25 1079.265625 3200.164062 1080 3198.433594 C 1082.054688 3193.589844 1284.21875 2710.960938 1302.269531 2451.304688 C 1315.183594 2264.984375 1459.5 1932.550781 1520.929688 1798.261719 C 1524.214844 1791.042969 1531.085938 1789.457031 1535.984375 1790.277344 C 1540.886719 1791.101562 1546.875 1794.855469 1547.636719 1802.78125 L 1689.546875 3287.996094 C 1689.78125 3290.375 1691.777344 3292.195312 1694.15625 3292.195312 L 1706.011719 3292.195312 C 1706.421875 3315.875 1708.007812 3401.480469 1709.535156 3458.644531 C 1711.265625 3522.355469 1598.445312 3586.597656 1597.300781 3587.242188 L 1580.246094 3596.835938 L 1599.792969 3595.898438 C 1609.097656 3595.429688 1827.726562 3583.984375 1831.542969 3515.136719 C 1834.890625 3454.832031 1846.132812 3312.382812 1847.714844 3292.195312 L 1861.511719 3292.195312 C 1863.859375 3292.195312 1865.855469 3290.375 1866.089844 3288.027344 C 1866.734375 3281.6875 1930.453125 2651.125 1868.464844 2387.652344 C 1843.050781 2279.511719 1859.367188 2135.273438 1876.65625 1982.585938 Z M 1085.664062 794.03125 L 1092.941406 604.894531 C 1093.058594 602.371094 1095.46875 600.285156 1097.757812 600.460938 C 1100.28125 600.550781 1102.277344 602.722656 1102.1875 605.246094 L 1094.910156 794.382812 C 1094.820312 796.875 1092.765625 798.84375 1090.300781 798.84375 C 1090.242188 798.84375 1090.183594 798.84375 1090.125 798.84375 C 1087.570312 798.726562 1085.574219 796.582031 1085.664062 794.03125 Z M 1638.769531 1267.621094 C 1662.105469 1185.070312 1682.152344 1090.632812 1682.355469 1089.695312 C 1682.882812 1087.199219 1685.410156 1085.617188 1687.84375 1086.144531 C 1690.339844 1086.671875 1691.925781 1089.109375 1691.394531 1091.601562 C 1691.191406 1092.570312 1671.085938 1187.300781 1647.695312 1270.144531 C 1626.238281 1346.035156 1544.46875 1401.878906 1459.585938 1401.878906 C 1452.71875 1401.878906 1445.878906 1401.527344 1439.011719 1400.792969 C 1355.335938 1391.695312 1291.675781 1384.417969 1291.675781 1384.417969 C 1289.121094 1384.125 1287.300781 1381.835938 1287.59375 1379.285156 C 1287.859375 1376.761719 1290.175781 1374.910156 1292.703125 1375.234375 C 1292.730469 1375.234375 1356.363281 1382.511719 1440.011719 1391.578125 C 1516.730469 1399.945312 1614.910156 1352.109375 1638.769531 1267.621094 Z M 1291.261719 1188.472656 C 1288.710938 1188.472656 1286.65625 1186.417969 1286.65625 1183.867188 C 1286.65625 1181.3125 1288.710938 1179.230469 1291.261719 1179.230469 L 1452.484375 1179.230469 L 1502.261719 911.589844 C 1502.730469 909.066406 1505.109375 907.394531 1507.664062 907.894531 C 1510.15625 908.363281 1511.832031 910.769531 1511.359375 913.265625 L 1460.878906 1184.71875 C 1460.46875 1186.890625 1458.558594 1188.472656 1456.328125 1188.472656 Z M 1247.238281 802.101562 C 1236.996094 789.160156 1197.253906 735.425781 1203.476562 686.800781 C 1210.226562 634.035156 1231.945312 523.898438 1232.179688 522.8125 C 1232.679688 520.289062 1235.144531 518.644531 1237.609375 519.171875 C 1240.105469 519.640625 1241.75 522.078125 1241.25 524.601562 C 1241.015625 525.6875 1219.382812 635.53125 1212.632812 687.972656 C 1206.175781 738.507812 1256.101562 798.375 1256.601562 798.960938 C 1258.066406 800.722656 1258.066406 803.246094 1256.570312 804.976562 C 1256.070312 805.5625 1207.292969 866.308594 1298.308594 1023.605469 C 1299.011719 1022.550781 1299.628906 1021.582031 1300.449219 1020.289062 C 1306.027344 1011.722656 1316.328125 995.960938 1335.140625 967.203125 C 1379.667969 899.121094 1370.097656 855.304688 1369.980469 854.863281 C 1369.539062 852.929688 1370.363281 850.902344 1372.035156 849.875 C 1373.238281 849.113281 1491.667969 774.515625 1498.125 724.949219 C 1504.933594 672.949219 1513.296875 564.335938 1513.386719 563.25 C 1513.59375 560.699219 1516 558.847656 1518.347656 558.996094 C 1520.898438 559.199219 1522.808594 561.402344 1522.601562 563.957031 C 1522.515625 565.042969 1514.121094 673.886719 1507.3125 726.152344 C 1500.765625 776.246094 1397.953125 844.242188 1379.578125 856.039062 C 1381.222656 867.953125 1383.277344 910.503906 1342.890625 972.25 C 1310.515625 1021.726562 1303.621094 1032.382812 1302.179688 1034.582031 C 1302.121094 1034.730469 1302.035156 1034.875 1301.945312 1035.023438 C 1301.917969 1035.050781 1301.886719 1035.050781 1301.859375 1035.082031 C 1301.507812 1035.609375 1301.035156 1036.078125 1300.449219 1036.429688 C 1300.390625 1036.460938 1300.363281 1036.429688 1300.332031 1036.460938 C 1299.511719 1036.960938 1298.628906 1037.28125 1297.691406 1037.28125 C 1296.867188 1037.28125 1296.046875 1037.078125 1295.34375 1036.605469 C 1293.550781 1035.402344 1292.671875 1034.730469 1293.082031 1032.996094 C 1205.324219 884.152344 1237.433594 816.980469 1247.238281 802.101562 Z M 1321.671875 369.769531 C 1320.40625 367.539062 1321.199219 364.722656 1323.402344 363.460938 C 1325.457031 362.289062 1374.058594 335.257812 1397.421875 363.136719 C 1399.066406 365.105469 1398.832031 368.011719 1396.867188 369.652344 C 1394.898438 371.296875 1391.992188 371.03125 1390.351562 369.097656 C 1371.859375 347.027344 1328.390625 371.265625 1327.949219 371.503906 C 1327.246094 371.914062 1326.453125 372.117188 1325.691406 372.117188 C 1324.078125 372.117188 1322.519531 371.265625 1321.671875 369.769531 Z M 1439.601562 360.847656 C 1438.367188 358.617188 1439.160156 355.832031 1441.390625 354.570312 C 1442.503906 353.953125 1468.449219 339.835938 1490.199219 351.839844 C 1492.460938 353.074219 1493.253906 355.890625 1492.019531 358.121094 C 1490.785156 360.351562 1487.96875 361.144531 1485.738281 359.941406 C 1468.421875 350.371094 1446.117188 362.523438 1445.878906 362.667969 C 1445.175781 363.050781 1444.414062 363.226562 1443.648438 363.226562 C 1442.035156 363.226562 1440.449219 362.375 1439.601562 360.847656 Z M 1422.339844 489.53125 C 1421.402344 491.910156 1418.730469 493.082031 1416.355469 492.144531 C 1415.386719 491.761719 1392.082031 482.605469 1375.558594 471.074219 C 1374.910156 470.632812 1374.441406 470.339844 1374.058594 470.164062 C 1373.972656 471.574219 1374.296875 474.214844 1375.675781 477.765625 C 1378.726562 485.484375 1385.976562 495.285156 1397.335938 499.539062 C 1399.710938 500.449219 1400.914062 503.121094 1400.007812 505.496094 C 1399.332031 507.347656 1397.570312 508.492188 1395.691406 508.492188 C 1395.164062 508.492188 1394.605469 508.402344 1394.046875 508.195312 C 1375.351562 501.125 1365.726562 482.902344 1364.875 472.21875 C 1364.316406 465.382812 1367.308594 462.621094 1369.128906 461.566406 C 1371.390625 460.304688 1375.207031 459.570312 1380.839844 463.503906 C 1396.453125 474.390625 1419.496094 483.457031 1419.730469 483.546875 C 1422.105469 484.484375 1423.28125 487.15625 1422.339844 489.53125 Z M 1409.457031 457.839844 C 1409.664062 455.285156 1411.953125 453.378906 1414.445312 453.613281 L 1439.980469 455.753906 L 1428.125 422.976562 C 1427.242188 420.570312 1428.503906 417.929688 1430.910156 417.046875 C 1433.261719 416.195312 1435.960938 417.429688 1436.8125 419.835938 L 1451.132812 459.394531 C 1451.664062 460.863281 1451.429688 462.503906 1450.460938 463.765625 C 1449.578125 464.910156 1448.230469 465.585938 1446.789062 465.585938 C 1446.671875 465.585938 1446.527344 465.585938 1446.410156 465.558594 L 1413.652344 462.828125 C 1411.128906 462.621094 1409.222656 460.390625 1409.457031 457.839844 Z M 1232.796875 372.648438 C 1234.851562 367.539062 1237.84375 364.488281 1241.953125 363.285156 C 1243.363281 362.875 1244.890625 362.699219 1246.445312 362.699219 C 1255.691406 362.699219 1266.8125 369.066406 1270.835938 371.972656 C 1272.65625 373.234375 1275.121094 373.085938 1276.734375 371.5625 C 1277.851562 370.503906 1304.117188 345.003906 1302.710938 294.4375 C 1302.210938 276.039062 1306.4375 262.421875 1315.625 252.738281 C 1328.039062 239.648438 1349.816406 233.164062 1384.15625 232.34375 C 1431.820312 231.078125 1479.867188 246.253906 1491.609375 250.214844 C 1493.722656 270.402344 1505.753906 390.929688 1500.824219 466.113281 C 1495.804688 543.0625 1405.4375 547.492188 1399.273438 547.699219 C 1381.25 545.761719 1365.902344 535.605469 1365.753906 535.488281 C 1363.613281 534.082031 1360.734375 534.636719 1359.328125 536.75 C 1357.917969 538.863281 1358.476562 541.738281 1360.589844 543.179688 C 1361.175781 543.558594 1372.914062 551.308594 1388.617188 555.121094 L 1372.300781 569.003906 L 1265.992188 442.785156 C 1254.046875 430.078125 1224.753906 392.75 1232.796875 372.648438 Z M 1449.078125 579.246094 C 1445.820312 585.289062 1433.640625 608.210938 1417.410156 638.789062 L 1388.765625 567.152344 L 1400.855469 556.882812 C 1407.578125 556.441406 1433.40625 553.976562 1458.265625 541.710938 C 1458.324219 549.722656 1457.121094 564.308594 1449.078125 579.246094 Z M 1297.894531 864.285156 L 1287.210938 613.199219 C 1287.917969 613.109375 1288.621094 612.992188 1289.265625 612.582031 L 1358.59375 567.066406 L 1368.21875 578.511719 C 1369.011719 579.449219 1370.15625 580.035156 1371.359375 580.125 C 1371.507812 580.15625 1371.625 580.15625 1371.769531 580.15625 C 1372.855469 580.15625 1373.914062 579.773438 1374.765625 579.039062 L 1381.339844 573.464844 L 1411.746094 649.46875 C 1373.796875 721.046875 1318.382812 825.636719 1297.894531 864.285156 Z M 1299.863281 497.339844 L 1352.605469 559.964844 L 1286.800781 603.160156 L 1283.222656 519.261719 Z M 1293.757812 490.089844 L 1274.855469 515.003906 C 1274.210938 515.855469 1273.886719 516.914062 1273.917969 517.96875 L 1289.382812 881.71875 C 1289.472656 883.800781 1290.96875 885.5625 1292.996094 886.03125 C 1293.316406 886.089844 1293.667969 886.148438 1294.023438 886.148438 C 1295.695312 886.148438 1297.28125 885.210938 1298.101562 883.683594 C 1299.570312 880.925781 1444.648438 606.976562 1457.210938 583.648438 C 1468.128906 563.367188 1467.894531 543.675781 1467.363281 536.722656 C 1488.878906 523.605469 1507.75 502.09375 1510.070312 466.703125 C 1515.46875 384.0625 1500.648438 247.691406 1500.5 246.3125 C 1500.296875 244.550781 1499.152344 243.082031 1497.480469 242.464844 C 1495.160156 241.617188 1439.980469 221.6875 1383.921875 223.097656 C 1346.96875 224.007812 1323.136719 231.402344 1308.902344 246.371094 C 1297.953125 257.933594 1292.878906 273.71875 1293.464844 294.671875 C 1294.519531 332.121094 1278.878906 354.773438 1272.742188 362.171875 C 1266.199219 358.207031 1251.726562 350.785156 1239.371094 354.394531 C 1232.445312 356.417969 1227.367188 361.40625 1224.226562 369.214844 C 1212.371094 398.910156 1257.335938 447.097656 1259.09375 448.945312 L 1293.757812 490.089844 " fill-opacity="1" fill-rule="nonzero"/></g><path fill="#100f0d" d="M 1465.546875 383.5625 C 1461.964844 383.5625 1459.058594 386.4375 1459.058594 390.019531 C 1459.058594 393.601562 1461.964844 396.503906 1465.546875 396.503906 C 1469.125 396.503906 1472.03125 393.601562 1472.03125 390.019531 C 1472.03125 386.4375 1469.125 383.5625 1465.546875 383.5625 Z M 1378.582031 397.179688 C 1378.582031 400.761719 1375.675781 403.664062 1372.09375 403.664062 C 1368.511719 403.664062 1365.636719 400.761719 1365.636719 397.179688 C 1365.636719 393.601562 1368.511719 390.722656 1372.09375 390.722656 C 1375.675781 390.722656 1378.582031 393.601562 1378.582031 397.179688 " fill-opacity="1" fill-rule="nonzero"/></svg>