<svg xmlns="http://www.w3.org/2000/svg" xmlns:xlink="http://www.w3.org/1999/xlink" width="5000" zoomAndPan="magnify" viewBox="0 0 3750 3749.999967" height="5000" preserveAspectRatio="xMidYMid meet" version="1.0"><defs><clipPath id="id1"><path d="M 539 57.484375 L 1731.449219 57.484375 L 1731.449219 3692.429688 L 539 3692.429688 Z M 539 57.484375 " clip-rule="nonzero"/></clipPath></defs><g clip-path="url(#id1)"><path fill="#100f0d" d="M 1080.007812 230.671875 C 1038.273438 158.90625 986.308594 69.613281 899.652344 58.867188 C 798.851562 46.421875 672.011719 121.632812 642.609375 189.628906 C 610.476562 263.949219 615.363281 313.496094 625.132812 342.007812 C 626.109375 344.851562 629.214844 346.375 632.089844 345.398438 C 633.496094 344.910156 634.589844 343.902344 635.222656 342.640625 L 699.890625 374.453125 L 649.164062 368.503906 C 647.695312 368.332031 646.144531 368.792969 644.964844 369.769531 C 643.816406 370.777344 643.125 372.210938 643.070312 373.734375 C 643.039062 374.222656 641.230469 423.742188 640.339844 491.335938 C 639.332031 567.84375 672.445312 608.394531 751.109375 626.960938 C 759.128906 628.855469 767.4375 629.71875 775.886719 629.71875 C 854.46875 629.71875 945.582031 555.570312 949.835938 552.09375 C 951.902344 550.367188 952.421875 547.410156 951.070312 545.082031 L 911.78125 478.664062 L 1019.851562 531.832031 C 1019.132812 533.296875 1018.988281 535.023438 1019.765625 536.574219 C 1020.710938 538.527344 1022.636719 539.675781 1024.679688 539.675781 C 1025.484375 539.675781 1026.289062 539.503906 1027.035156 539.132812 C 1029.132812 538.125 1078.339844 513.839844 1111.566406 444.605469 C 1145.398438 374.109375 1142.207031 334.246094 1096.765625 259.09375 C 1091.332031 250.097656 1085.757812 240.558594 1080.007812 230.671875 Z M 888.296875 3436.246094 L 601.421875 3583.765625 C 601.164062 3583.882812 600.960938 3584.027344 600.761719 3584.167969 L 541.78125 3625.84375 C 539.972656 3627.136719 539.109375 3629.375 539.625 3631.53125 C 540.113281 3633.714844 541.867188 3635.355469 544.082031 3635.699219 C 546.09375 3636.015625 575.898438 3640.699219 614.929688 3640.699219 C 640.425781 3640.699219 669.855469 3638.6875 698.023438 3632.191406 C 768.097656 3616.042969 831.820312 3605.035156 832.105469 3604.949219 C 864.382812 3601.527344 889.074219 3575.519531 890.796875 3543.101562 L 896.257812 3441.390625 C 896.34375 3439.4375 895.398438 3437.570312 893.757812 3436.507812 C 892.121094 3435.441406 890.023438 3435.328125 888.296875 3436.246094 Z M 1731.046875 3688.984375 C 1730.214844 3691.082031 1728.203125 3692.429688 1725.960938 3692.429688 C 1725.789062 3692.429688 1725.585938 3692.429688 1725.386719 3692.402344 C 1597.769531 3678.835938 1432.386719 3617.652344 1430.71875 3617.019531 C 1411.605469 3610.496094 1397.496094 3593.941406 1394.074219 3573.851562 L 1379.960938 3491.195312 C 1379.617188 3489.15625 1380.449219 3487.085938 1382.117188 3485.851562 C 1383.8125 3484.617188 1386.027344 3484.472656 1387.867188 3485.421875 L 1646.515625 3620.207031 C 1646.804688 3620.351562 1647.0625 3620.496094 1647.292969 3620.667969 L 1729.265625 3682.601562 C 1731.21875 3684.097656 1731.96875 3686.710938 1731.046875 3688.984375 " fill-opacity="1" fill-rule="nonzero"/></g><path fill="#ff0c99" d="M 1012.894531 504.960938 C 1008.496094 492.859375 1005.566406 478.75 1005.566406 462.253906 C 1005.566406 462.253906 975.5 458.632812 923.59375 388.507812 C 922.097656 386.496094 920.546875 384.398438 918.964844 382.242188 C 898.960938 408.511719 900.195312 454.265625 920.863281 486.855469 C 938.914062 515.335938 989.757812 509.386719 1012.894531 504.960938 Z M 718.660156 549.679688 C 766.917969 579.742188 807.015625 527.835938 807.015625 527.835938 L 701.359375 453.171875 C 701.359375 453.171875 670.402344 519.644531 718.660156 549.679688 Z M 1379.875 1342.890625 C 1310.664062 1412.09375 1235.964844 1388.414062 1235.964844 1388.414062 L 1245.101562 1418.476562 L 596.621094 1306.476562 L 709.550781 1013.21875 C 709.550781 1013.21875 376.226562 1219.050781 294.253906 1107.945312 C 212.28125 996.835938 279.679688 896.652344 407.183594 774.625 C 534.683594 652.59375 818.855469 588.851562 818.855469 588.851562 L 928.132812 783.734375 L 1061.125 550.597656 C 1061.125 550.597656 1061.125 550.597656 1203.195312 632.5625 C 1345.269531 714.527344 1379.875 818.335938 1412.671875 974.964844 C 1445.4375 1131.625 1449.085938 1273.683594 1379.875 1342.890625 " fill-opacity="1" fill-rule="nonzero"/><path fill="#ffffff" d="M 920.863281 486.855469 C 938.914062 515.335938 989.757812 509.386719 1012.894531 504.960938 C 1008.496094 492.859375 1005.566406 478.75 1005.566406 462.253906 C 1005.566406 462.253906 975.5 458.632812 923.59375 388.507812 C 922.097656 386.496094 920.546875 384.398438 918.964844 382.242188 C 898.960938 408.511719 900.195312 454.265625 920.863281 486.855469 Z M 714.121094 498.695312 C 685.867188 444.953125 630.308594 340.226562 630.308594 340.226562 C 641.257812 243.71875 765.109375 163.5625 765.109375 163.5625 C 765.109375 163.5625 876.226562 316.574219 928.132812 386.667969 C 980.042969 456.792969 1010.105469 460.441406 1010.105469 460.441406 C 1010.105469 529.648438 1061.125 558.789062 1061.125 558.789062 L 927.675781 785.574219 L 818.855469 594.3125 C 874.414062 577.929688 863.464844 525.105469 863.464844 525.105469 C 863.464844 525.105469 863.464844 525.105469 831.589844 540.570312 C 799.714844 556.058594 742.34375 552.410156 714.121094 498.695312 Z M 603.894531 3588.625 C 603.894531 3588.625 814.285156 3523.039062 849.8125 3514.878906 C 885.335938 3506.660156 890.796875 3441.105469 890.796875 3441.105469 L 907.210938 3212.96875 L 755.078125 3260.765625 C 755.078125 3260.765625 762.378906 3301.746094 778.761719 3378.25 C 795.171875 3454.753906 603.894531 3588.625 603.894531 3588.625 Z M 1509.214844 3453.835938 C 1498.292969 3366.410156 1487.34375 3289.90625 1487.34375 3289.90625 C 1487.34375 3289.90625 1367.113281 1719.921875 1235.964844 1410.285156 L 605.734375 1300.988281 C 605.734375 1300.988281 489.15625 1490.4375 500.078125 1752.6875 C 511 2014.964844 755.078125 3260.765625 755.078125 3260.765625 L 958.773438 3196.273438 C 958.773438 3196.273438 937.246094 2823.664062 940.894531 2670.65625 C 944.515625 2517.675781 875.304688 2204.386719 915.371094 1956.679688 L 1254.1875 3187.9375 L 1324.660156 3218.746094 C 1330.410156 3243.320312 1354.785156 3348.015625 1370.765625 3424.695312 C 1388.988281 3512.121094 1381.6875 3526.691406 1461.847656 3555.832031 C 1541.980469 3584.972656 1643.988281 3625.039062 1643.988281 3625.039062 C 1643.988281 3625.039062 1520.136719 3541.261719 1509.214844 3453.835938 Z M 603.894531 960.394531 C 634.878906 964.046875 645.800781 993.1875 702.277344 996.835938 C 749.273438 999.882812 835.441406 972.609375 864.011719 947.605469 C 869.757812 942.605469 865.992188 933.09375 858.375 933.09375 L 579.519531 933.09375 C 571.816406 933.09375 568.050781 942.71875 573.914062 947.691406 C 580.527344 953.324219 590.269531 958.816406 603.894531 960.394531 Z M 1113.921875 874.808594 C 1163.101562 934.902344 1285.167969 1084.261719 1285.167969 1084.261719 L 1219.582031 1324.667969 L 1000.996094 867.507812 L 886.226562 898.492188 L 789.710938 898.492188 C 789.710938 898.492188 884.417969 805.605469 951.816406 792.84375 C 1019.21875 780.082031 1064.746094 814.714844 1113.921875 874.808594 " fill-opacity="1" fill-rule="nonzero"/><path fill="#100f0d" d="M 694.976562 393.96875 C 698.253906 393.96875 700.898438 391.324219 700.898438 388.046875 C 700.898438 384.773438 698.253906 382.128906 694.976562 382.128906 C 691.699219 382.128906 689.054688 384.773438 689.054688 388.046875 C 689.054688 391.324219 691.699219 393.96875 694.976562 393.96875 Z M 776.492188 373.9375 C 779.765625 373.9375 782.410156 371.292969 782.410156 368.015625 C 782.410156 364.742188 779.765625 362.097656 776.492188 362.097656 C 773.214844 362.097656 770.570312 364.742188 770.570312 368.015625 C 770.570312 371.292969 773.214844 373.9375 776.492188 373.9375 Z M 934.515625 933.09375 L 225.015625 933.09375 L 69.289062 633.484375 L 551.066406 633.484375 L 676.753906 903.03125 L 912.84375 903.03125 C 928.421875 903.03125 939.429688 918.292969 934.515625 933.09375 " fill-opacity="1" fill-rule="nonzero"/><path fill="#100f0d" d="M 763.816406 171.066406 C 782.210938 196.382812 877.261719 327.148438 923.738281 389.917969 C 965.414062 446.1875 993.925781 460.84375 1004.703125 464.609375 C 1006.3125 521.65625 1040.917969 551.402344 1053.738281 560.515625 L 927.761719 773.328125 L 826.902344 597.386719 C 871.570312 580.546875 870.621094 539.503906 869.300781 527.464844 L 896.921875 505.707031 C 899.277344 503.839844 899.679688 500.417969 897.8125 498.035156 C 895.941406 495.675781 892.523438 495.273438 890.136719 497.144531 L 860.5625 520.449219 L 829.203125 535.683594 C 799.570312 550.050781 745.824219 547.292969 718.949219 496.136719 C 692.707031 446.21875 642.867188 352.210938 635.941406 339.191406 C 646.402344 257.082031 742.257812 186.066406 763.816406 171.066406 Z M 709.261719 501.222656 C 739.527344 558.847656 800.433594 561.808594 833.976562 545.511719 L 858.921875 533.382812 C 859.554688 547.351562 856.164062 577.613281 817.304688 589.082031 C 815.695312 589.539062 814.402344 590.71875 813.769531 592.269531 C 813.136719 593.824219 813.28125 595.574219 814.113281 597.042969 L 922.933594 786.894531 C 923.910156 788.589844 925.691406 789.652344 927.644531 789.652344 C 927.644531 789.652344 927.675781 789.652344 927.675781 789.652344 C 929.628906 789.652344 931.410156 788.648438 932.386719 786.980469 L 1065.808594 561.578125 C 1066.558594 560.339844 1066.757812 558.816406 1066.382812 557.410156 C 1066.011719 556 1065.089844 554.792969 1063.824219 554.046875 C 1063.335938 553.761719 1015.566406 525.738281 1015.566406 460.441406 C 1015.566406 457.742188 1013.527344 455.441406 1010.855469 455.039062 C 1010.566406 454.980469 981.710938 449.839844 932.53125 383.421875 C 881.226562 314.128906 770.65625 161.898438 769.535156 160.34375 C 767.839844 157.988281 764.5625 157.414062 762.148438 158.992188 C 757.003906 162.300781 635.96875 241.648438 624.902344 339.621094 C 624.761719 340.714844 624.960938 341.835938 625.480469 342.785156 C 625.480469 342.785156 681.039062 447.511719 709.261719 501.222656 Z M 1463.714844 3550.71875 C 1396.027344 3526.085938 1393.84375 3514.761719 1381.742188 3451.96875 C 1380.105469 3443.460938 1378.292969 3434.035156 1376.109375 3423.601562 C 1361.25 3352.214844 1342.828125 3260.675781 1336.761719 3230.359375 L 1482.371094 3293.699219 C 1484.496094 3308.757812 1494.183594 3377.820312 1503.78125 3454.527344 C 1511.457031 3515.941406 1571.585938 3574.398438 1609.699219 3605.839844 C 1572.648438 3591.5 1513.671875 3568.878906 1463.714844 3550.71875 Z M 920.660156 1955.242188 C 920.632812 1955.183594 920.605469 1955.15625 920.574219 1955.097656 C 920.574219 1955.042969 920.574219 1954.984375 920.574219 1954.957031 C 920.203125 1953.890625 884.878906 1848.761719 868.695312 1794.847656 C 851.566406 1737.714844 808.96875 1728.574219 807.160156 1728.230469 C 804.226562 1727.625 801.351562 1729.523438 800.75 1732.484375 C 800.144531 1735.441406 802.042969 1738.316406 805.003906 1738.921875 C 806.554688 1739.265625 843.058594 1747.398438 858.234375 1797.980469 C 873.582031 1849.078125 905.945312 1945.730469 909.796875 1957.195312 C 884.101562 2117.792969 904.019531 2306.898438 920.058594 2458.929688 C 928.996094 2543.65625 936.699219 2616.796875 935.433594 2670.539062 C 932.042969 2813.203125 950.726562 3150.546875 953.082031 3192.363281 L 759.273438 3253.722656 C 740.90625 3159.515625 515.941406 2002.03125 505.539062 1752.484375 C 495.5625 1513.199219 593.691406 1332.859375 608.519531 1307.023438 L 1232.082031 1415.140625 C 1355.789062 1714.347656 1471.101562 3152.730469 1481.191406 3281.285156 L 1258.753906 3183.972656 Z M 885.367188 3440.644531 C 883.929688 3457.773438 874.53125 3503.554688 848.574219 3509.53125 C 821.15625 3515.855469 693.023438 3555.285156 633.066406 3573.851562 C 685.609375 3533.5 797.414062 3439.234375 784.105469 3377.101562 C 771.058594 3316.117188 763.699219 3277.375 761.34375 3264.558594 L 901.175781 3220.585938 Z M 1647.0625 3620.523438 C 1645.855469 3619.71875 1525.136719 3537.152344 1514.617188 3453.175781 C 1503.871094 3367.101562 1492.976562 3290.683594 1492.773438 3289.246094 C 1491.023438 3266.425781 1370.707031 1714.347656 1240.992188 1408.15625 C 1240.273438 1406.433594 1238.722656 1405.226562 1236.910156 1404.910156 L 606.652344 1295.613281 C 604.441406 1295.269531 602.226562 1296.214844 601.078125 1298.140625 C 599.898438 1300.039062 483.75 1491.992188 494.617188 1752.917969 C 505.453125 2012.492188 747.058594 3248.203125 749.730469 3261.769531 C 749.847656 3262.574219 757.289062 3304.046875 773.445312 3379.402344 C 788.878906 3451.507812 602.65625 3582.820312 600.761719 3584.167969 C 598.546875 3585.691406 597.800781 3588.625 599.007812 3591.039062 C 599.925781 3592.933594 601.882812 3594.085938 603.894531 3594.085938 C 604.441406 3594.085938 604.984375 3594 605.53125 3593.855469 C 607.628906 3593.164062 816.125 3528.242188 851.046875 3520.195312 C 889.992188 3511.199219 896 3444.410156 896.230469 3441.476562 L 912.414062 3216.707031 L 960.441406 3201.503906 C 962.824219 3200.726562 964.378906 3198.457031 964.261719 3195.957031 C 964.035156 3192.25 942.765625 2821.824219 946.355469 2670.800781 C 947.648438 2616.367188 939.890625 2542.878906 930.921875 2457.78125 C 915.773438 2314.054688 897.09375 2137.046875 917.039062 1983.292969 L 1248.925781 3189.375 C 1249.355469 3190.957031 1250.476562 3192.277344 1252 3192.9375 L 1324.460938 3224.609375 C 1327.824219 3241.449219 1348.804688 3346.121094 1365.417969 3425.816406 C 1367.601562 3436.21875 1369.382812 3445.558594 1371.023438 3454.035156 C 1383.210938 3517.234375 1386.457031 3534.25 1459.980469 3560.976562 C 1539.136719 3589.773438 1640.96875 3629.722656 1642.003906 3630.152344 C 1642.664062 3630.382812 1643.328125 3630.496094 1643.988281 3630.496094 C 1645.972656 3630.496094 1647.867188 3629.433594 1648.84375 3627.59375 C 1650.136719 3625.125 1649.363281 3622.078125 1647.0625 3620.523438 Z M 688.25 337.640625 C 687.160156 340.457031 683.996094 341.863281 681.179688 340.800781 C 662.152344 333.472656 654.539062 346.835938 654.222656 347.410156 C 653.242188 349.222656 651.347656 350.253906 649.449219 350.253906 C 648.53125 350.253906 647.640625 350.027344 646.804688 349.566406 C 644.160156 348.128906 643.183594 344.796875 644.648438 342.152344 C 648.902344 334.421875 662.84375 322.035156 685.117188 330.570312 C 687.9375 331.660156 689.316406 334.824219 688.25 337.640625 Z M 725.472656 317.347656 C 723.03125 315.566406 722.484375 312.148438 724.265625 309.703125 C 725.128906 308.496094 746.398438 280.074219 793.535156 298.726562 C 796.351562 299.847656 797.703125 303.007812 796.609375 305.824219 C 795.488281 308.640625 792.296875 309.992188 789.511719 308.898438 C 750.191406 293.351562 733.261719 315.882812 733.089844 316.113281 C 732.027344 317.609375 730.359375 318.382812 728.664062 318.382812 C 727.570312 318.382812 726.449219 318.039062 725.472656 317.347656 Z M 807.128906 448.371094 C 807.761719 445.410156 810.636719 443.515625 813.625 444.175781 C 816.558594 444.808594 818.453125 447.710938 817.820312 450.671875 C 811.785156 478.863281 783.5625 488.867188 782.382812 489.296875 C 781.777344 489.5 781.175781 489.585938 780.601562 489.585938 C 778.328125 489.585938 776.230469 488.175781 775.425781 485.90625 C 774.449219 483.0625 775.945312 479.957031 778.789062 478.949219 C 779.019531 478.863281 802.386719 470.445312 807.128906 448.371094 Z M 724.121094 421.472656 C 723.261719 394.917969 711.246094 372.183594 711.101562 371.953125 C 709.695312 369.308594 710.699219 366.003906 713.34375 364.566406 C 715.988281 363.132812 719.320312 364.136719 720.730469 366.78125 C 721.277344 367.785156 734.125 391.929688 735.042969 421.097656 C 735.273438 427.765625 735.273438 434.40625 735.304688 440.582031 C 735.304688 449.550781 735.332031 461.390625 736.480469 466.363281 C 744.929688 461.9375 754.847656 455.84375 754.960938 455.785156 C 757.519531 454.207031 760.910156 455.011719 762.492188 457.597656 C 764.046875 460.15625 763.269531 463.519531 760.683594 465.097656 C 760.195312 465.414062 748.523438 472.570312 739.328125 477.167969 C 737.71875 477.972656 736.28125 478.261719 735.042969 478.261719 C 733.148438 478.261719 731.710938 477.601562 730.847656 477.054688 C 724.695312 473.289062 724.410156 463.144531 724.351562 440.582031 C 724.351562 434.519531 724.351562 428.023438 724.121094 421.472656 Z M 576.703125 940.566406 C 576.875 940.105469 577.59375 938.554688 579.519531 938.554688 L 754.472656 938.554688 L 713.832031 955.367188 C 711.042969 956.515625 709.722656 959.707031 710.871094 962.492188 C 711.761719 964.589844 713.773438 965.882812 715.929688 965.882812 C 716.621094 965.882812 717.339844 965.742188 718.027344 965.453125 L 783.042969 938.554688 L 808.539062 938.554688 L 765.308594 961.027344 C 762.636719 962.40625 761.601562 965.710938 762.980469 968.386719 C 763.957031 970.253906 765.882812 971.34375 767.839844 971.34375 C 768.703125 971.34375 769.5625 971.144531 770.367188 970.714844 L 832.222656 938.554688 L 858.375 938.554688 C 860.273438 938.554688 860.964844 940.046875 861.136719 940.507812 C 861.394531 941.167969 861.625 942.433594 860.417969 943.496094 C 832.105469 968.269531 746.65625 994.222656 702.621094 991.375 C 670.863281 989.335938 654.25 978.933594 639.5625 969.765625 C 628.753906 963.011719 618.582031 956.628906 604.554688 954.992188 C 594.0625 953.757812 584.953125 949.90625 577.421875 943.527344 C 576.214844 942.492188 576.445312 941.226562 576.703125 940.566406 Z M 603.261719 965.828125 C 614.84375 967.207031 623.609375 972.667969 633.757812 979.019531 C 648.761719 988.386719 667.414062 1000.054688 701.90625 1002.296875 C 704.347656 1002.441406 706.90625 1002.527344 709.550781 1002.527344 C 757.867188 1002.527344 838.71875 977.007812 867.632812 951.746094 C 871.941406 947.953125 873.410156 942.058594 871.367188 936.65625 C 869.300781 931.167969 864.210938 927.632812 858.375 927.632812 L 840.816406 927.632812 C 839.378906 925.132812 836.214844 924.15625 833.628906 925.503906 L 829.546875 927.632812 L 800.632812 927.632812 C 800.632812 926.941406 800.488281 926.222656 800.203125 925.535156 C 799.054688 922.746094 795.863281 921.425781 793.074219 922.574219 L 780.886719 927.632812 L 579.519531 927.632812 C 573.597656 927.632812 568.484375 931.226562 566.441406 936.800781 C 564.429688 942.230469 565.984375 948.152344 570.351562 951.859375 C 579.546875 959.648438 590.613281 964.363281 603.261719 965.828125 Z M 1109.699219 878.257812 C 1155.398438 934.097656 1263.929688 1066.933594 1279.132812 1085.527344 L 1218.171875 1309.0625 L 1003.957031 861.070312 L 885.507812 893.03125 L 852.714844 893.03125 L 891.71875 857.910156 C 893.960938 855.898438 894.132812 852.449219 892.121094 850.207031 C 890.109375 847.9375 886.660156 847.765625 884.417969 849.804688 L 836.390625 893.03125 L 828.140625 893.03125 L 846.21875 856.875 C 878.265625 831.816406 919.28125 804.542969 952.824219 798.21875 C 1018.585938 785.773438 1063.050781 821.238281 1109.699219 878.257812 Z M 803.507812 893.03125 C 809.027344 887.972656 816.644531 881.1875 825.640625 873.601562 L 815.925781 893.03125 Z M 950.8125 787.46875 C 882.550781 800.375 789.796875 890.730469 785.859375 894.582031 L 776.316406 903.949219 L 810.464844 903.949219 L 809.398438 906.050781 C 808.050781 908.75 809.140625 912.027344 811.84375 913.378906 C 812.621094 913.78125 813.453125 913.953125 814.285156 913.953125 C 816.296875 913.953125 818.222656 912.859375 819.171875 910.933594 L 822.679688 903.949219 L 828.140625 903.949219 C 828.3125 904.929688 828.628906 905.90625 829.375 906.679688 C 830.441406 907.886719 831.933594 908.492188 833.429688 908.492188 C 834.722656 908.492188 836.015625 908.03125 837.078125 907.082031 L 840.558594 903.949219 L 886.257812 903.949219 L 998.035156 873.976562 L 1220.988281 1340.273438 L 1287.84375 1095.15625 L 1354.007812 1166.3125 C 1355.101562 1167.464844 1356.566406 1168.039062 1358.003906 1168.039062 C 1359.355469 1168.039062 1360.675781 1167.550781 1361.738281 1166.574219 C 1363.953125 1164.53125 1364.066406 1161.054688 1362.027344 1158.871094 L 1289.25 1080.640625 C 1286.320312 1077.050781 1166.753906 930.707031 1118.175781 871.332031 C 1069.027344 811.292969 1021.746094 774.078125 950.8125 787.46875 " fill-opacity="1" fill-rule="nonzero"/></svg>