<svg xmlns="http://www.w3.org/2000/svg" xmlns:xlink="http://www.w3.org/1999/xlink" width="5000" zoomAndPan="magnify" viewBox="0 0 3750 3749.999967" height="5000" preserveAspectRatio="xMidYMid meet" version="1.0"><defs><clipPath id="id1"><path d="M 219 57.019531 L 1430 57.019531 L 1430 3668.8125 L 219 3668.8125 Z M 219 57.019531 " clip-rule="nonzero"/></clipPath><clipPath id="id2"><path d="M 255 225 L 1507.980469 225 L 1507.980469 3553 L 255 3553 Z M 255 225 " clip-rule="nonzero"/></clipPath></defs><g clip-path="url(#id1)"><path fill="#100f0d" d="M 316.492188 3194.523438 L 219.328125 3343.4375 L 282.492188 3437.316406 L 318.101562 3419.519531 L 368.09375 3531.601562 C 374.132812 3545.144531 387.59375 3553.882812 402.4375 3553.882812 L 572.339844 3553.882812 C 546.425781 3505.320312 444.402344 3484.273438 444.402344 3484.273438 L 434.707031 3396.859375 Z M 925.324219 3524.324219 C 925.324219 3570.476562 944.769531 3668.785156 944.769531 3668.785156 L 1092.925781 3634.796875 L 1084.414062 3612.945312 L 1422.699219 3561.878906 C 1430.148438 3560.757812 1431.472656 3550.433594 1424.480469 3547.644531 C 1365.515625 3524.183594 1271.433594 3519.464844 1271.433594 3519.464844 L 1139.0625 3459.976562 C 1139.0625 3459.976562 925.324219 3478.203125 925.324219 3524.324219 Z M 348.878906 278.480469 C 278.4375 243.660156 249.300781 100.410156 259.828125 92.328125 C 270.355469 84.21875 297.882812 102.851562 297.882812 102.851562 C 296.242188 71.28125 299.492188 62.367188 316.492188 68.835938 C 333.492188 75.308594 356.15625 98.796875 356.15625 98.796875 C 356.15625 98.796875 355.351562 51.84375 375.601562 57.507812 C 395.820312 63.171875 453.320312 100.410156 453.320312 100.410156 C 453.320312 100.410156 500.289062 90.691406 553.703125 81 C 607.144531 71.28125 688.113281 75.308594 710.777344 214.53125 C 733.445312 353.726562 629.003906 403.097656 629.003906 403.097656 C 629.003906 403.097656 419.320312 313.269531 348.878906 278.480469 " fill-opacity="1" fill-rule="nonzero"/></g><path fill="#ffffff" d="M 1441.855469 1214.867188 L 1441.855469 1415.597656 L 1469.382812 1415.597656 L 1469.382812 1624.40625 L 1125.113281 1623.65625 C 1125.949219 1623.886719 1126.808594 1624.144531 1127.53125 1624.40625 C 1167.195312 1638.953125 1061.34375 1728.003906 955.265625 1728.003906 C 881.546875 1728.003906 824.335938 1711.210938 796.261719 1700.945312 C 859.601562 1918.898438 945.890625 2219.402344 983.625 2367.367188 C 1046.761719 2615.023438 935.046875 2687.882812 935.046875 2687.882812 L 1139.0625 3459.976562 L 905.878906 3547.386719 L 711.585938 2988.964844 L 434.707031 3396.859375 L 288.964844 3178.332031 C 444.402344 2784.984375 575.5625 2624.742188 575.5625 2624.742188 C 575.5625 2624.742188 458.984375 2318.804688 337.546875 1993.457031 C 216.109375 1668.109375 293.828125 1444.722656 293.828125 1444.722656 L 721.304688 1444.722656 C 721.304688 1444.722656 750.933594 1545.132812 790.941406 1682.6875 L 896.1875 1602.550781 L 910.339844 1624.40625 C 910.339844 1624.40625 916.234375 1623.917969 926.042969 1623.226562 L 910.339844 1623.199219 L 646.808594 1214.867188 L 692.140625 1214.867188 L 700.25 1114.519531 L 724.554688 1114.519531 L 654.921875 897.601562 L 624.144531 897.601562 L 602.601562 687.699219 L 467.066406 602.214844 L 467.066406 514.804688 L 404.304688 524.292969 C 366.828125 529.988281 332.972656 501.320312 332.371094 463.453125 L 328.628906 229.914062 C 361.015625 293.832031 519.332031 246.332031 533.480469 299.5 C 547.230469 351.3125 562.617188 358.585938 562.617188 358.585938 C 562.617188 358.585938 616.0625 291.417969 642.753906 305.996094 C 660.328125 315.542969 649.570312 362.871094 640.105469 394.210938 L 1380.328125 394.210938 C 1380.328125 394.210938 1404.605469 484.84375 1380.328125 556.066406 L 1364.136719 556.066406 C 1364.136719 556.066406 1368.996094 586.832031 1368.996094 645.085938 C 1368.996094 703.371094 1341.46875 726.027344 1341.46875 726.027344 L 1341.46875 756.796875 C 1341.46875 756.796875 1368.996094 764.875 1373.859375 784.3125 C 1378.71875 803.722656 1373.859375 902.460938 1373.859375 902.460938 L 1411.105469 902.460938 C 1411.105469 902.460938 1476.3125 1006.75 1493.886719 1079.09375 C 1511.894531 1153.363281 1500.15625 1240.773438 1500.15625 1240.773438 C 1500.15625 1240.773438 1454.796875 1214.867188 1441.855469 1214.867188 " fill-opacity="1" fill-rule="nonzero"/><path fill="#ff0c99" d="M 894.03125 1624.40625 L 745.582031 1745.800781 L 407.382812 1440.46875 L 290.777344 1439.863281 L 259.828125 1235.914062 C 162.664062 1090.222656 89.808594 857.144531 206.386719 750.324219 C 322.964844 643.476562 444.402344 531.796875 444.402344 531.796875 L 608.582031 638.042969 L 604.414062 701.816406 L 624.144531 897.601562 L 654.921875 897.601562 L 724.527344 1114.519531 L 700.25 1114.519531 L 692.140625 1214.867188 L 646.808594 1214.867188 L 904.269531 1613.078125 L 894.03125 1624.40625 " fill-opacity="1" fill-rule="nonzero"/><g clip-path="url(#id2)"><path fill="#100f0d" d="M 471.757812 318.5625 C 452.945312 298.664062 418.226562 305.132812 417.882812 305.21875 C 415.640625 305.652344 413.453125 304.183594 413.019531 301.914062 C 412.5625 299.671875 414.027344 297.484375 416.300781 297.054688 C 417.882812 296.738281 455.851562 289.578125 477.796875 312.839844 C 479.378906 314.507812 479.292969 317.152344 477.625 318.734375 C 476.816406 319.480469 475.78125 319.855469 474.777344 319.855469 C 473.683594 319.855469 472.5625 319.425781 471.757812 318.5625 Z M 834.804688 581.082031 C 834.75 581.082031 834.691406 581.054688 834.632812 581.054688 C 833.710938 581.054688 832.878906 581.425781 832.1875 581.945312 L 818.238281 586.546875 L 798.046875 550.515625 L 927.078125 550.515625 Z M 1496.734375 1234.074219 C 1483.761719 1226.914062 1453.160156 1210.699219 1441.855469 1210.699219 C 1439.554688 1210.699219 1437.710938 1212.566406 1437.710938 1214.867188 L 1437.710938 1415.597656 C 1437.710938 1417.898438 1439.554688 1419.765625 1441.855469 1419.765625 L 1465.210938 1419.765625 L 1465.210938 1620.234375 L 912.609375 1619.027344 L 905.074219 1607.355469 C 904.960938 1606.867188 904.816406 1606.375 904.527344 1605.945312 L 738.707031 1349.578125 L 654.460938 1219.039062 L 680.519531 1219.039062 C 681.179688 1219.496094 681.957031 1219.84375 682.847656 1219.84375 L 971.058594 1219.84375 C 973.359375 1219.84375 975.226562 1217.972656 975.226562 1215.671875 C 975.226562 1213.371094 973.359375 1211.53125 971.058594 1211.53125 L 696.597656 1211.53125 L 704.078125 1118.6875 L 724.554688 1118.6875 C 725.878906 1118.6875 727.117188 1118.054688 727.894531 1116.960938 C 728.699219 1115.898438 728.898438 1114.519531 728.496094 1113.253906 L 660.617188 901.769531 L 1095.34375 901.769531 C 1097.644531 901.769531 1099.515625 899.902344 1099.515625 897.601562 C 1099.515625 895.328125 1097.644531 893.460938 1095.34375 893.460938 L 888.878906 893.460938 C 888.160156 872.097656 878.757812 842.96875 867.796875 809.386719 C 854.222656 767.722656 838.804688 720.449219 838.804688 680.714844 L 838.804688 588.5 L 953.050781 550.691406 L 1081.59375 550.691406 C 1083.867188 550.691406 1085.738281 548.820312 1085.738281 546.519531 C 1085.738281 544.21875 1083.867188 542.351562 1081.59375 542.351562 L 953.742188 542.351562 C 953.453125 542.292969 953.167969 542.207031 952.851562 542.207031 L 837.191406 542.207031 L 837.191406 413.621094 C 837.191406 411.320312 835.324219 409.480469 833.023438 409.480469 C 830.722656 409.480469 828.878906 411.320312 828.878906 413.621094 L 828.878906 542.207031 L 790.941406 542.207031 C 789.445312 542.207031 788.09375 542.984375 787.347656 544.25 C 786.597656 545.542969 786.570312 547.09375 787.289062 548.390625 L 812.65625 593.617188 C 813.40625 594.96875 814.816406 595.746094 816.28125 595.746094 C 816.742188 595.746094 817.175781 595.6875 817.605469 595.546875 L 830.492188 591.261719 L 830.492188 680.714844 C 830.492188 721.773438 846.109375 769.707031 859.886719 811.972656 C 870.15625 843.488281 879.792969 873.21875 880.539062 893.460938 L 627.910156 893.460938 L 606.484375 684.855469 L 620.835938 590.6875 C 620.894531 590.398438 620.921875 590.109375 620.894531 589.824219 L 609.128906 398.351562 L 1377.078125 398.351562 C 1380.875 414.484375 1397.011719 490.480469 1377.308594 551.898438 L 1364.136719 551.898438 C 1362.929688 551.898438 1361.777344 552.445312 1360.972656 553.363281 C 1360.195312 554.285156 1359.851562 555.519531 1360.023438 556.726562 C 1360.082031 557.015625 1364.828125 587.898438 1364.828125 645.117188 C 1364.828125 700.410156 1339.054688 722.605469 1338.796875 722.835938 C 1337.875 723.613281 1337.300781 724.792969 1337.300781 726.027344 L 1337.300781 752.625 L 914.796875 752.625 C 912.496094 752.625 910.625 754.496094 910.625 756.796875 C 910.625 759.09375 912.496094 760.9375 914.796875 760.9375 L 1340.664062 760.9375 C 1340.695312 760.9375 1340.722656 760.9375 1340.75 760.9375 C 1344.117188 762.027344 1365.890625 769.675781 1369.800781 785.320312 C 1373.542969 800.214844 1371.355469 868.332031 1369.714844 902.257812 C 1369.628906 903.410156 1370.0625 904.503906 1370.839844 905.335938 C 1371.613281 906.167969 1372.707031 906.628906 1373.859375 906.628906 L 1408.777344 906.628906 C 1417.75 921.265625 1473.953125 1014.597656 1489.832031 1080.101562 C 1504.730469 1141.519531 1498.949219 1213 1496.734375 1234.074219 Z M 434.738281 3389.414062 L 293.625 3177.84375 C 430.824219 2831.222656 550.136719 2664.996094 574.296875 2633.195312 L 706.925781 2988.386719 Z M 1497.941406 1078.144531 C 1480.398438 1005.945312 1417.289062 904.558594 1414.617188 900.273438 C 1413.867188 899.039062 1412.515625 898.292969 1411.105469 898.292969 L 1378.203125 898.292969 C 1379.09375 878.710938 1382.316406 800.933594 1377.886719 783.304688 C 1373.457031 765.652344 1353.351562 756.652344 1345.613281 753.804688 L 1345.613281 727.867188 C 1351.652344 722.003906 1373.140625 697.417969 1373.140625 645.117188 C 1373.140625 599.570312 1370.234375 570.988281 1368.910156 560.234375 L 1380.328125 560.234375 C 1382.113281 560.234375 1383.695312 559.085938 1384.269531 557.417969 C 1408.691406 485.820312 1385.363281 396.886719 1384.355469 393.121094 C 1383.867188 391.308594 1382.199219 390.042969 1380.328125 390.042969 L 644.105469 390.042969 C 658.285156 337.796875 658.515625 309.820312 644.765625 302.34375 C 618.449219 287.996094 574.125 338.144531 561.984375 352.777344 C 557.355469 348.148438 547.058594 334.492188 537.480469 298.433594 C 529.945312 270.054688 488.152344 267.582031 443.882812 264.9375 C 399.015625 262.261719 348.160156 259.214844 332.339844 228.015625 C 331.476562 226.292969 329.523438 225.402344 327.625 225.859375 C 325.753906 226.320312 324.460938 228.015625 324.488281 229.972656 L 328.199219 463.507812 C 328.515625 482.773438 337.113281 500.945312 351.8125 513.394531 C 366.511719 525.816406 385.867188 531.308594 404.910156 528.40625 L 462.925781 519.636719 L 462.925781 543.761719 C 462.925781 546.03125 464.765625 547.902344 467.066406 547.902344 C 469.367188 547.902344 471.238281 546.03125 471.238281 543.761719 L 471.238281 518.285156 L 495.542969 514.027344 C 497.785156 513.625 499.3125 511.46875 498.910156 509.226562 C 498.503906 506.957031 496.40625 505.460938 494.105469 505.832031 L 466.378906 510.691406 C 466.347656 510.691406 466.347656 510.691406 466.347656 510.691406 L 403.671875 520.183594 C 386.992188 522.710938 370.078125 517.910156 357.191406 507.042969 C 344.335938 496.144531 336.769531 480.242188 336.511719 463.394531 L 333.003906 243.398438 C 355.839844 268.011719 402.035156 270.773438 443.394531 273.246094 C 484.554688 275.691406 523.445312 278.019531 529.453125 300.589844 C 543.320312 352.75 559.082031 361.519531 560.835938 362.355469 C 562.589844 363.1875 564.660156 362.699219 565.871094 361.175781 C 579.1875 344.46875 621.441406 299.125 640.769531 309.648438 C 646.261719 312.640625 652.820312 327.128906 635.476562 390.042969 L 604.730469 390.042969 C 603.578125 390.042969 602.484375 390.503906 601.679688 391.367188 C 600.902344 392.199219 600.5 393.320312 600.558594 394.472656 L 612.550781 589.878906 L 600.988281 665.675781 L 522.320312 708.117188 L 400.050781 581.714844 C 398.4375 580.046875 395.820312 580.019531 394.152344 581.601562 C 392.511719 583.210938 392.457031 585.828125 394.066406 587.492188 L 518.523438 716.167969 C 519.332031 717 520.421875 717.429688 521.515625 717.429688 C 522.207031 717.429688 522.867188 717.289062 523.5 716.941406 L 599.40625 675.96875 L 598.171875 684.136719 C 598.113281 684.480469 598.113281 684.824219 598.140625 685.199219 L 620 898.03125 C 620.230469 900.160156 622.015625 901.769531 624.144531 901.769531 L 651.871094 901.769531 L 718.832031 1110.347656 L 700.25 1110.347656 C 698.066406 1110.347656 696.28125 1112.015625 696.109375 1114.171875 L 688.316406 1210.699219 L 648.878906 1210.699219 L 400.941406 827.355469 C 399.703125 825.429688 397.117188 824.882812 395.1875 826.148438 C 393.261719 827.386719 392.714844 829.972656 393.953125 831.898438 L 733.90625 1357.484375 L 840.847656 1523.191406 L 671.632812 1668.195312 C 669.90625 1669.691406 669.675781 1672.308594 671.199219 1674.0625 C 672.003906 1675.011719 673.183594 1675.5 674.335938 1675.5 C 675.3125 1675.5 676.261719 1675.15625 677.039062 1674.492188 L 845.417969 1530.238281 L 906.859375 1625.441406 C 907.632812 1626.621094 908.929688 1627.339844 910.339844 1627.339844 L 910.339844 1628.546875 L 1039.339844 1628.546875 C 1038.996094 1629.378906 1038.851562 1630.300781 1039.109375 1631.21875 C 1039.714844 1633.433594 1042.046875 1634.726562 1044.230469 1634.125 C 1053.0625 1631.738281 1077.96875 1626.964844 1086.945312 1633.808594 C 1088.988281 1635.390625 1089.964844 1637.488281 1089.964844 1640.449219 C 1089.964844 1660.632812 1033.042969 1682.949219 997.144531 1692.261719 C 994.929688 1692.839844 993.578125 1695.109375 994.152344 1697.324219 C 994.644531 1699.191406 996.339844 1700.429688 998.179688 1700.429688 C 998.527344 1700.429688 998.871094 1700.402344 999.246094 1700.316406 C 1009.371094 1697.667969 1098.277344 1673.660156 1098.277344 1640.449219 C 1098.277344 1635.648438 1096.550781 1631.621094 1093.417969 1628.546875 L 1127.53125 1628.546875 C 1130.0625 1628.546875 1131.011719 1629.121094 1131.238281 1629.292969 C 1131.355469 1629.378906 1131.554688 1629.550781 1131.554688 1630.328125 C 1131.554688 1647.035156 1045.8125 1723.835938 955.265625 1723.835938 C 897.625 1723.835938 834.777344 1710.464844 798.476562 1698.992188 L 796.753906 1704.484375 L 793.214844 1705.488281 C 856.40625 1925.023438 955.984375 2275.847656 979.570312 2368.402344 C 1033.417969 2579.425781 958.199219 2662.410156 937.691406 2680.464844 L 738.332031 1770.816406 L 730.195312 1772.601562 L 930.355469 2685.957031 L 930.242188 2686.042969 L 1134.085938 3457.417969 L 908.410156 3542.007812 L 712.792969 2979.761719 L 712.675781 2979.964844 L 580.308594 2625.519531 L 579.445312 2623.273438 C 578.296875 2620.199219 461.488281 2313.628906 341.429688 1991.992188 C 229.195312 1691.285156 288.648438 1475.664062 296.875 1448.894531 L 407.441406 1448.894531 L 407.441406 1448.347656 C 407.785156 1448.175781 408.132812 1448.03125 408.417969 1447.742188 C 410.085938 1446.160156 410.144531 1443.546875 408.5625 1441.878906 C 408.21875 1441.476562 407.816406 1441.042969 407.441406 1440.640625 L 407.441406 1440.554688 L 407.382812 1440.554688 C 353.136719 1382.386719 264.285156 1235.253906 263.394531 1233.757812 C 262.1875 1231.804688 259.625 1231.171875 257.671875 1232.351562 C 255.714844 1233.527344 255.082031 1236.089844 256.261719 1238.070312 C 257.125 1239.511719 341.027344 1378.445312 396.136719 1440.554688 L 290.863281 1440.554688 L 289.886719 1443.371094 C 289.109375 1445.617188 213.089844 1671.90625 333.636719 1994.921875 C 448.34375 2302.183594 560.058594 2595.699219 570.84375 2624.023438 C 555.746094 2643.316406 430.136719 2809.800781 285.109375 3176.808594 L 284.304688 3178.824219 L 434.679688 3404.308594 L 710.375 2998.136719 L 901.96875 3548.765625 L 903.378906 3552.792969 L 1144.039062 3462.5625 L 939.792969 2689.582031 C 956.617188 2676.84375 1046.332031 2596.390625 987.652344 2366.363281 C 964.242188 2274.496094 866.15625 1928.960938 802.90625 1709.054688 C 840.472656 1720.15625 900.183594 1732.144531 955.265625 1732.144531 C 1046.015625 1732.144531 1139.898438 1656.523438 1139.898438 1630.328125 C 1139.898438 1629.410156 1139.753906 1628.601562 1139.582031 1627.855469 L 1469.382812 1628.546875 C 1470.472656 1628.546875 1471.539062 1628.113281 1472.316406 1627.339844 C 1473.089844 1626.5625 1473.550781 1625.496094 1473.550781 1624.40625 L 1473.550781 1415.597656 C 1473.550781 1413.296875 1471.683594 1411.425781 1469.382812 1411.425781 L 1446.023438 1411.425781 L 1446.023438 1219.699219 C 1457.847656 1222.804688 1483.070312 1235.800781 1498.085938 1244.398438 C 1499.292969 1245.089844 1500.734375 1245.117188 1502 1244.511719 C 1503.234375 1243.878906 1504.097656 1242.703125 1504.269531 1241.320312 C 1504.386719 1240.457031 1515.917969 1152.300781 1497.941406 1078.144531 Z M 441.382812 411.867188 C 443.25 413.21875 443.652344 415.804688 442.332031 417.675781 C 424.496094 442.519531 388.226562 447.695312 386.675781 447.894531 C 386.5 447.925781 386.300781 447.925781 386.128906 447.925781 C 384.085938 447.925781 382.273438 446.429688 382.015625 444.332031 C 381.699219 442.058594 383.28125 439.960938 385.550781 439.644531 C 385.898438 439.613281 419.839844 434.726562 435.570312 412.816406 C 436.894531 410.945312 439.484375 410.515625 441.382812 411.867188 Z M 344.304688 414.972656 C 343.558594 413.734375 343.5 412.183594 344.191406 410.890625 L 363.003906 375.0625 C 364.066406 373.050781 366.597656 372.246094 368.609375 373.308594 C 370.652344 374.402344 371.429688 376.902344 370.367188 378.945312 L 354.746094 408.648438 L 377.613281 408.648438 C 379.914062 408.648438 381.785156 410.515625 381.785156 412.816406 C 381.785156 415.117188 379.914062 416.984375 377.613281 416.984375 L 347.871094 416.984375 C 346.40625 416.984375 345.054688 416.210938 344.304688 414.972656 Z M 340.453125 303.726562 C 338.378906 304.644531 335.90625 303.726562 334.957031 301.597656 C 334.039062 299.5 334.957031 297.054688 337.058594 296.105469 C 337.835938 295.761719 355.957031 287.96875 372.320312 300.90625 C 374.105469 302.316406 374.421875 304.933594 372.984375 306.746094 C 372.175781 307.78125 370.941406 308.324219 369.734375 308.324219 C 368.8125 308.324219 367.921875 308.039062 367.144531 307.433594 C 354.691406 297.570312 340.566406 303.640625 340.453125 303.726562 Z M 1050.097656 1464.449219 L 956.617188 1419.765625 L 1155.773438 1419.765625 Z M 1357.664062 1411.425781 L 1176.398438 1411.425781 C 1176.339844 1411.425781 1176.285156 1411.425781 1176.195312 1411.425781 L 938.265625 1411.425781 C 936.339844 1411.425781 934.644531 1412.777344 934.210938 1414.675781 C 933.808594 1416.574219 934.730469 1418.5 936.484375 1419.335938 L 1048.199219 1472.757812 C 1048.777344 1473.046875 1049.378906 1473.160156 1050.011719 1473.160156 C 1050.558594 1473.160156 1051.105469 1473.046875 1051.625 1472.84375 L 1177.144531 1419.765625 L 1357.664062 1419.765625 C 1359.964844 1419.765625 1361.835938 1417.898438 1361.835938 1415.597656 C 1361.835938 1413.296875 1359.964844 1411.425781 1357.664062 1411.425781 Z M 1382.257812 1174.152344 L 1239.5625 1112.1875 L 1430.148438 1112.1875 Z M 1438.605469 1103.878906 L 854.078125 1103.878906 C 851.777344 1103.878906 849.90625 1105.75 849.90625 1108.046875 C 849.90625 1110.347656 851.777344 1112.1875 854.078125 1112.1875 L 1219.976562 1112.1875 C 1220.378906 1112.734375 1220.953125 1113.195312 1221.613281 1113.484375 L 1381.910156 1183.066406 C 1382.429688 1183.324219 1383.003906 1183.410156 1383.550781 1183.410156 C 1384.816406 1183.410156 1386.054688 1182.835938 1386.859375 1181.800781 L 1441.910156 1110.578125 C 1442.890625 1109.34375 1443.0625 1107.617188 1442.34375 1106.207031 C 1441.652344 1104.769531 1440.214844 1103.878906 1438.605469 1103.878906 " fill-opacity="1" fill-rule="nonzero"/></g><path fill="#100f0d" d="M 350.894531 338.746094 C 345.886719 338.746094 341.804688 342.828125 341.804688 347.863281 C 341.804688 352.894531 345.886719 356.976562 350.894531 356.976562 C 355.925781 356.976562 360.011719 352.894531 360.011719 347.863281 C 360.011719 342.828125 355.925781 338.746094 350.894531 338.746094 Z M 438.332031 349.703125 C 438.332031 354.707031 434.277344 358.789062 429.242188 358.789062 C 424.210938 358.789062 420.125 354.707031 420.125 349.703125 C 420.125 344.671875 424.210938 340.585938 429.242188 340.585938 C 434.277344 340.585938 438.332031 344.671875 438.332031 349.703125 " fill-opacity="1" fill-rule="nonzero"/></svg>