<svg xmlns="http://www.w3.org/2000/svg" xmlns:xlink="http://www.w3.org/1999/xlink" width="5000" zoomAndPan="magnify" viewBox="0 0 3750 3749.999967" height="5000" preserveAspectRatio="xMidYMid meet" version="1.0"><defs><clipPath id="id1"><path d="M 671 60.449219 L 1923 60.449219 L 1923 3689.699219 L 671 3689.699219 Z M 671 60.449219 " clip-rule="nonzero"/></clipPath><clipPath id="id2"><path d="M 64.085938 163 L 2283.703125 163 L 2283.703125 3522.878906 L 64.085938 3522.878906 Z M 64.085938 163 " clip-rule="nonzero"/></clipPath></defs><g clip-path="url(#id1)"><path fill="#100f0d" d="M 877.59375 3404.890625 C 877.59375 3404.890625 874.929688 3455.484375 805.675781 3482.101562 C 736.425781 3508.746094 679.191406 3535.359375 671.199219 3571.300781 L 1037.359375 3571.300781 L 1050.683594 3411.550781 Z M 1151.882812 322.4375 C 1151.882812 322.4375 1175.835938 276.503906 1196.804688 227.558594 C 1217.773438 178.640625 1198.804688 52.832031 1082.976562 60.796875 C 967.121094 68.789062 914.203125 106.730469 893.234375 119.703125 C 872.234375 132.707031 893.234375 166.652344 910.207031 189.617188 C 927.179688 212.585938 1051 320.4375 1151.882812 322.4375 Z M 1761.714844 3454.269531 C 1761.714844 3454.269531 1779.007812 3506.195312 1858.917969 3566.089844 C 1938.800781 3626.011719 1920.148438 3689.929688 1920.148438 3689.929688 L 1553.988281 3567.421875 L 1545.992188 3512.859375 L 1761.714844 3454.269531 " fill-opacity="1" fill-rule="nonzero"/></g><path fill="#ffffff" d="M 2278.34375 1215.152344 C 2270.347656 1196.183594 2176.476562 1183.207031 2176.476562 1183.207031 C 2176.476562 1183.207031 2177.460938 1163.222656 2147.515625 1141.242188 C 2117.566406 1119.289062 2083.273438 1128.265625 2083.273438 1128.265625 L 2084.605469 1211.15625 C 2084.605469 1211.15625 2151.511719 1222.132812 2205.441406 1232.125 C 2259.371094 1242.117188 2286.335938 1234.121094 2278.34375 1215.152344 Z M 210.152344 1107.296875 C 173.195312 1153.230469 182.199219 1174.199219 182.199219 1174.199219 L 143.246094 1207.160156 C 143.246094 1207.160156 81.320312 1193.171875 69.359375 1207.160156 C 57.367188 1221.148438 133.253906 1248.109375 184.199219 1255.089844 C 235.117188 1262.070312 301.039062 1200.179688 301.039062 1200.179688 L 300.691406 1094.988281 C 300.691406 1094.988281 247.109375 1061.363281 210.152344 1107.296875 Z M 914.203125 414.304688 C 926.167969 447.261719 971.117188 466.230469 999.070312 449.230469 C 1027.046875 432.257812 1042.023438 422.296875 1042.023438 422.296875 L 1065.308594 474.863281 L 1113.9375 581.0625 L 1246.738281 530.121094 L 1151.882812 322.4375 L 1105.945312 296.457031 C 1126.914062 281.484375 1129.898438 229.554688 1103.945312 219.5625 C 1077.964844 209.601562 1071.96875 245.542969 1071.96875 245.542969 C 1006.078125 256.519531 994.085938 167.664062 994.085938 167.664062 C 916.203125 190.632812 900.214844 176.644531 900.214844 176.644531 L 898.214844 294.460938 L 874.261719 378.359375 L 897.230469 367.355469 C 897.230469 367.355469 902.214844 381.34375 914.203125 414.304688 Z M 1761.714844 3457.25 L 1538 3518.503906 L 1250.417969 1878.203125 L 1066.671875 3446.59375 L 834.988281 3446.59375 C 834.988281 3446.59375 816.335938 3036.523438 864.269531 2264.320312 C 912.207031 1492.082031 985.425781 1311.015625 985.425781 1311.015625 C 979.429688 1305.019531 1398.191406 1311.015625 1398.191406 1311.015625 C 1665.84375 1545.34375 1761.714844 3457.25 1761.714844 3457.25 " fill-opacity="1" fill-rule="nonzero"/><path fill="#ff0c99" d="M 527.390625 1291.03125 C 366.265625 1259.085938 336.984375 1215.152344 336.984375 1215.152344 L 291.714844 1215.152344 L 291.714844 1089.980469 L 793.6875 1089.980469 C 793.6875 1089.980469 809.675781 1020.761719 842.953125 849.019531 C 876.234375 677.246094 978.765625 582.714844 1022.703125 542.777344 C 1066.671875 502.839844 1065.308594 474.863281 1065.308594 474.863281 L 1122.570312 542.777344 L 1143.886719 484.1875 L 1214.445312 442.917969 C 1214.445312 442.917969 1285.027344 505.503906 1356.917969 525.457031 C 1428.832031 545.441406 1548.65625 569.394531 1600.589844 690.570312 C 1652.523438 811.714844 1667.175781 1127.28125 1667.175781 1127.28125 L 2089.265625 1127.28125 L 2089.265625 1220.480469 L 2021.347656 1231.140625 C 2021.347656 1231.140625 1794.996094 1357.613281 1647.191406 1328.335938 C 1499.390625 1299.023438 1470.105469 1109.964844 1470.105469 1109.964844 C 1479.433594 1192.503906 1464.777344 1311.015625 1398.191406 1311.015625 C 1331.632812 1311.015625 1032.027344 1311.015625 985.425781 1311.015625 C 938.824219 1311.015625 930.828125 1276.40625 930.828125 1276.40625 C 930.828125 1276.40625 688.488281 1322.976562 527.390625 1291.03125 " fill-opacity="1" fill-rule="nonzero"/><path fill="#100f0d" d="M 945.484375 284.816406 C 945.484375 288.667969 942.355469 291.792969 938.503906 291.792969 C 934.625 291.792969 931.496094 288.667969 931.496094 284.816406 C 931.496094 280.964844 934.625 277.835938 938.503906 277.835938 C 942.355469 277.835938 945.484375 280.964844 945.484375 284.816406 Z M 962.140625 383.660156 C 948.148438 399.648438 948.148438 399.648438 948.148438 399.648438 L 924.167969 379.027344 C 924.167969 379.027344 946.152344 362.375 956.144531 355.046875 C 966.109375 347.71875 976.128906 367.703125 962.140625 383.660156 Z M 980.445312 336.800781 C 970.914062 332.28125 959.765625 332.832031 950.523438 337.929688 L 897.230469 367.355469 C 897.230469 367.355469 902.214844 381.34375 914.203125 414.304688 C 926.167969 447.261719 971.117188 466.230469 999.070312 449.230469 C 1014.359375 439.960938 1025.628906 432.867188 1032.8125 428.261719 C 1043.265625 375 1003.875 347.953125 980.445312 336.800781 " fill-opacity="1" fill-rule="nonzero"/><g clip-path="url(#id2)"><path fill="#100f0d" d="M 1068.8125 499.074219 L 1046.191406 528.355469 C 1044.832031 530.089844 1045.148438 532.609375 1046.917969 533.945312 C 1047.640625 534.523438 1048.480469 534.785156 1049.351562 534.785156 C 1050.539062 534.785156 1051.726562 534.261719 1052.507812 533.25 L 1075.128906 503.9375 C 1076.488281 502.203125 1076.171875 499.683594 1074.433594 498.351562 C 1072.664062 496.988281 1070.144531 497.335938 1068.8125 499.074219 Z M 1152.691406 494.238281 C 1151.621094 492.324219 1149.1875 491.601562 1147.277344 492.703125 C 1145.335938 493.746094 1144.640625 496.175781 1145.710938 498.117188 L 1172.359375 546.050781 C 1173.082031 547.351562 1174.445312 548.105469 1175.835938 548.105469 C 1176.472656 548.105469 1177.109375 547.960938 1177.71875 547.640625 L 1268.257812 499.710938 C 1270.199219 498.667969 1270.953125 496.265625 1269.910156 494.296875 C 1268.894531 492.355469 1266.460938 491.628906 1264.492188 492.644531 L 1177.429688 538.75 Z M 2274.664062 1216.6875 C 2269.480469 1204.40625 2211.351562 1192.070312 2175.925781 1187.144531 C 2173.871094 1186.855469 2172.394531 1185.0625 2172.480469 1183.003906 C 2172.480469 1182.859375 2172.710938 1164.671875 2145.140625 1144.484375 C 2122.140625 1127.601562 2096.074219 1130.0625 2087.328125 1131.539062 L 2088.542969 1207.765625 C 2102.679688 1210.082031 2159.589844 1219.582031 2206.164062 1228.214844 C 2248.421875 1236.035156 2269.074219 1231.863281 2274.289062 1225.375 C 2274.953125 1224.5625 2276.925781 1222.101562 2274.664062 1216.6875 Z M 2280.515625 1230.386719 C 2275.128906 1237.046875 2263.195312 1240.433594 2245.789062 1240.433594 C 2234.347656 1240.433594 2220.5625 1238.988281 2204.71875 1236.0625 C 2151.453125 1226.1875 2084.632812 1215.210938 2083.96875 1215.09375 C 2082.054688 1214.773438 2080.636719 1213.152344 2080.605469 1211.214844 L 2079.273438 1128.324219 C 2079.246094 1126.5 2080.460938 1124.878906 2082.257812 1124.414062 C 2083.734375 1124.039062 2118.722656 1115.203125 2149.890625 1138.027344 C 2173.957031 1155.695312 2179.113281 1172.460938 2180.183594 1179.703125 C 2201.617188 1182.800781 2274.058594 1194.648438 2282.023438 1213.589844 C 2285.441406 1221.695312 2283.09375 1227.199219 2280.515625 1230.386719 Z M 297.042969 1198.410156 L 296.695312 1097.277344 C 287.167969 1091.976562 244.183594 1071.355469 213.25 1109.816406 C 178.8125 1152.625 185.820312 1172.519531 185.878906 1172.695312 C 186.488281 1174.285156 186.054688 1176.167969 184.777344 1177.269531 L 145.824219 1210.199219 C 144.867188 1211.011719 143.5625 1211.328125 142.375 1211.066406 C 128.503906 1207.941406 108.75 1204.898438 93.570312 1204.898438 C 83.492188 1204.898438 75.410156 1206.230469 72.371094 1209.765625 C 72.050781 1210.140625 71.992188 1210.316406 72.195312 1210.867188 C 76.742188 1222.855469 137.742188 1244.691406 184.722656 1251.121094 C 229.382812 1257.203125 287.746094 1206.753906 297.042969 1198.410156 Z M 304.6875 1094.960938 L 305.007812 1200.148438 C 305.035156 1201.25 304.574219 1202.320312 303.761719 1203.074219 C 301.15625 1205.507812 242.9375 1259.636719 192.484375 1259.636719 C 189.5 1259.636719 186.574219 1259.433594 183.648438 1259.058594 C 140.433594 1253.121094 71.472656 1231.457031 64.722656 1213.703125 C 63.476562 1210.429688 64.058594 1207.1875 66.316406 1204.550781 C 78.539062 1190.273438 128.011719 1199.773438 142.171875 1202.84375 L 177.710938 1172.75 C 176.351562 1165.105469 176.378906 1142.921875 207.050781 1104.808594 C 245.777344 1056.644531 302.257812 1091.253906 302.835938 1091.601562 C 303.992188 1092.324219 304.6875 1093.597656 304.6875 1094.960938 Z M 1222.988281 875.113281 C 1234.429688 886.4375 1247.867188 890.664062 1262.957031 887.683594 C 1314.425781 877.574219 1323.984375 766.765625 1325.402344 743.828125 L 1193.183594 743.828125 C 1186.261719 786.691406 1195.441406 847.886719 1222.988281 875.113281 Z M 1189.824219 735.835938 L 1329.632812 735.835938 C 1330.703125 735.835938 1331.746094 736.269531 1332.5 737.050781 C 1333.253906 737.832031 1333.660156 738.90625 1333.628906 739.976562 C 1333.425781 745.796875 1327.777344 883.078125 1264.492188 895.53125 C 1260.902344 896.226562 1257.398438 896.574219 1253.921875 896.574219 C 1240.394531 896.574219 1227.910156 891.246094 1217.367188 880.789062 C 1186.871094 850.640625 1177.398438 785.070312 1185.886719 739.109375 C 1186.261719 737.195312 1187.882812 735.835938 1189.824219 735.835938 Z M 1126.566406 542.949219 C 1126.652344 540.75 1124.945312 538.867188 1122.742188 538.78125 C 1120.746094 538.664062 1118.6875 540.402344 1118.601562 542.601562 C 1118.457031 545.414062 1106.902344 825.328125 1104.929688 975.4375 C 1102.960938 1125.660156 1115.792969 1305.511719 1115.9375 1307.308594 C 1116.082031 1309.394531 1117.820312 1311.015625 1119.90625 1311.015625 C 1119.992188 1311.015625 1120.109375 1311.015625 1120.195312 1311.015625 C 1122.394531 1310.839844 1124.046875 1308.929688 1123.902344 1306.730469 C 1123.757812 1304.933594 1110.957031 1125.429688 1112.925781 975.550781 C 1114.894531 825.558594 1126.453125 545.761719 1126.566406 542.949219 Z M 973.929688 604.058594 C 971.699219 603.800781 969.757812 605.363281 969.46875 607.535156 C 966.601562 631.746094 898.796875 1201.191406 927.09375 1277.765625 C 927.703125 1279.390625 929.207031 1280.375 930.828125 1280.375 C 931.292969 1280.375 931.757812 1280.316406 932.21875 1280.140625 C 934.304688 1279.359375 935.347656 1277.070312 934.59375 1275.015625 C 906.933594 1200.238281 976.707031 614.398438 977.402344 608.492188 C 977.691406 606.289062 976.128906 604.320312 973.929688 604.058594 Z M 875.972656 381.953125 L 894.945312 372.886719 C 897.230469 379.171875 902.15625 392.898438 910.4375 415.664062 C 916.984375 433.648438 932.886719 448.59375 952.957031 455.660156 C 970.367188 461.769531 987.945312 460.699219 1001.152344 452.648438 C 1020.734375 440.773438 1034.085938 432.230469 1040.285156 428.203125 L 1061.660156 476.484375 C 1062.324219 477.988281 1063.800781 478.859375 1065.308594 478.859375 C 1065.859375 478.859375 1066.410156 478.773438 1066.929688 478.539062 C 1068.957031 477.640625 1069.855469 475.265625 1068.988281 473.269531 L 1045.671875 420.675781 C 1045.207031 419.574219 1044.28125 418.761719 1043.121094 418.445312 C 1041.992188 418.097656 1040.777344 418.300781 1039.820312 418.964844 C 1039.648438 419.050781 1024.554688 429.101562 997.011719 445.84375 C 985.832031 452.617188 970.769531 453.457031 955.621094 448.128906 C 938.011719 441.933594 923.589844 428.464844 917.941406 412.941406 C 905.980469 380.011719 900.96875 366.023438 900.96875 366.023438 C 900.589844 364.953125 899.78125 364.113281 898.738281 363.675781 C 897.695312 363.242188 896.507812 363.273438 895.492188 363.765625 L 880.519531 370.917969 L 902.070312 295.558594 C 902.15625 295.242188 902.214844 294.894531 902.214844 294.546875 L 904.097656 182.726562 C 914.261719 185.707031 938.332031 187.765625 990.902344 172.734375 C 993.332031 185.417969 1002.136719 221.042969 1027.019531 239.402344 C 1039.996094 248.960938 1055.34375 252.347656 1072.636719 249.480469 C 1074.316406 249.191406 1075.648438 247.890625 1075.9375 246.210938 C 1075.9375 246.035156 1078.921875 229.121094 1088.683594 223.53125 C 1092.621094 221.332031 1097.140625 221.242188 1102.5 223.300781 C 1110.78125 226.484375 1116.488281 235.578125 1118.082031 248.265625 C 1120.339844 266.046875 1113.996094 285.800781 1103.597656 293.214844 C 1102.5 293.996094 1101.890625 295.328125 1101.949219 296.660156 C 1102.007812 298.050781 1102.789062 299.265625 1103.976562 299.933594 L 1148.78125 325.273438 L 1205.203125 448.824219 C 1206.132812 450.824219 1208.507812 451.722656 1210.503906 450.792969 C 1212.503906 449.867188 1213.402344 447.492188 1212.472656 445.496094 L 1155.503906 320.757812 C 1155.15625 320.003906 1154.574219 319.367188 1153.851562 318.960938 L 1112.808594 295.761719 C 1124.046875 284.003906 1128.074219 263.355469 1126.015625 247.25 C 1124.019531 231.582031 1116.488281 220.113281 1105.367188 215.855469 C 1097.71875 212.902344 1090.769531 213.164062 1084.714844 216.609375 C 1074.460938 222.488281 1070.117188 236.015625 1068.667969 241.980469 C 1054.679688 243.746094 1042.28125 240.734375 1031.796875 233.003906 C 1004.570312 212.902344 998.113281 167.578125 998.054688 167.113281 C 997.882812 165.957031 997.242188 164.941406 996.257812 164.304688 C 995.273438 163.667969 994.085938 163.496094 992.957031 163.8125 C 919.851562 185.359375 902.878906 173.660156 902.851562 173.632812 C 901.664062 172.617188 900.011719 172.355469 898.59375 172.992188 C 897.171875 173.632812 896.246094 175.019531 896.21875 176.554688 L 894.25 293.878906 L 870.410156 377.261719 C 869.976562 378.765625 870.46875 380.386719 871.65625 381.402344 C 872.871094 382.414062 874.554688 382.617188 875.972656 381.953125 Z M 1466.199219 1110.859375 C 1466.632812 1112.714844 1468.28125 1113.960938 1470.105469 1113.960938 C 1470.398438 1113.960938 1470.6875 1113.929688 1470.976562 1113.871094 C 1473.148438 1113.378906 1474.480469 1111.238281 1473.988281 1109.09375 L 1409.574219 825.5 C 1410.296875 819.621094 1416.378906 774.441406 1439.347656 688.945312 C 1463.359375 599.628906 1494.957031 579.789062 1495.421875 579.5 C 1497.332031 578.398438 1497.96875 575.96875 1496.871094 574.054688 C 1495.769531 572.144531 1493.308594 571.507812 1491.425781 572.609375 C 1490.003906 573.417969 1456.726562 593.488281 1431.644531 686.863281 C 1406.878906 778.960938 1401.609375 824.804688 1401.550781 825.269531 C 1401.519531 825.703125 1401.550781 826.167969 1401.636719 826.601562 Z M 1684.296875 2471.570312 C 1741.0625 2973.15625 1765.453125 3452.300781 1765.683594 3457.046875 C 1765.800781 3458.929688 1764.582031 3460.609375 1762.757812 3461.101562 L 1539.070312 3522.355469 C 1538.722656 3522.445312 1538.347656 3522.503906 1538 3522.503906 C 1537.273438 3522.503906 1536.523438 3522.300781 1535.882812 3521.863281 C 1534.929688 3521.285156 1534.261719 3520.300781 1534.089844 3519.199219 L 1251.199219 1905.800781 L 1070.609375 3447.085938 C 1070.40625 3449.085938 1068.667969 3450.589844 1066.671875 3450.589844 L 834.988281 3450.589844 C 832.84375 3450.589844 831.078125 3448.910156 830.992188 3446.796875 C 830.789062 3442.683594 812.890625 3027.664062 860.273438 2264.058594 C 907.714844 1500.019531 980.996094 1311.332031 981.71875 1309.507812 C 982.558594 1307.453125 984.875 1306.496094 986.933594 1307.308594 C 988.960938 1308.117188 989.945312 1310.464844 989.132812 1312.492188 C 988.410156 1314.316406 915.535156 1502.625 868.238281 2264.550781 C 823.285156 2988.882812 837.132812 3399.210938 838.8125 3442.625 L 1063.109375 3442.625 L 1246.363281 1878.347656 C 1232.804688 1803.074219 1206.101562 1761.746094 1186.058594 1740.316406 C 1164.394531 1717.144531 1145.65625 1711.671875 1145.480469 1711.613281 C 1143.367188 1711.003906 1142.121094 1708.832031 1142.699219 1706.691406 C 1143.308594 1704.574219 1145.507812 1703.359375 1147.625 1703.910156 C 1150.867188 1704.808594 1227.5625 1727.628906 1254.328125 1877.476562 C 1254.328125 1877.507812 1254.328125 1877.507812 1254.328125 1877.507812 L 1541.183594 3513.496094 L 1757.542969 3454.269531 C 1752.910156 3365.472656 1653.765625 1540.074219 1395.582031 1314 C 1393.902344 1312.550781 1393.757812 1310.03125 1395.207031 1308.378906 C 1396.65625 1306.699219 1399.175781 1306.554688 1400.824219 1308.003906 C 1512.597656 1405.863281 1607.976562 1797.339844 1684.296875 2471.570312 " fill-opacity="1" fill-rule="nonzero"/></g></svg>