<?xml version="1.0" standalone="no"?>
<!DOCTYPE svg PUBLIC "-//W3C//DTD SVG 20010904//EN"
 "http://www.w3.org/TR/2001/REC-SVG-20010904/DTD/svg10.dtd">
<svg version="1.0" xmlns="http://www.w3.org/2000/svg"
 width="2000.000000pt" height="2000.000000pt" viewBox="0 0 2000.000000 2000.000000"
 preserveAspectRatio="xMidYMid meet">
<metadata>
Created by potrace 1.14, written by Peter Selinger 2001-2017
</metadata>
<g transform="translate(0.000000,2000.000000) scale(0.100000,-0.100000)"
fill="#000000" stroke="none">
<path d="M7910 16500 c-14 -4 -48 -8 -76 -9 -28 -1 -75 -5 -105 -10 -30 -6
-88 -15 -129 -21 -41 -7 -88 -16 -105 -20 -16 -4 -57 -13 -90 -20 -33 -7 -71
-16 -85 -20 -14 -4 -45 -13 -70 -20 -630 -178 -1233 -559 -1643 -1040 -45 -52
-84 -97 -87 -100 -15 -14 -155 -206 -207 -285 -82 -124 -188 -316 -256 -465
-126 -279 -212 -572 -270 -925 -21 -129 -21 -138 -25 -2185 -2 -1419 0 -2109
8 -2230 42 -666 170 -1187 407 -1655 30 -60 64 -122 74 -137 11 -14 19 -29 19
-33 0 -12 161 -247 229 -335 157 -203 374 -415 592 -580 119 -90 272 -192 372
-249 18 -10 52 -30 77 -44 77 -45 320 -163 430 -210 174 -74 284 -113 775
-274 259 -85 610 -201 780 -257 171 -57 560 -185 865 -286 600 -197 1421 -468
1940 -640 179 -59 575 -189 880 -290 305 -100 779 -257 1054 -347 391 -129
500 -162 507 -152 4 8 106 308 225 669 119 360 261 789 316 953 54 164 96 302
93 307 -3 5 -254 91 -558 191 -303 100 -781 257 -1062 350 -280 93 -568 188
-640 211 -71 23 -138 47 -149 54 -15 11 -10 13 40 18 555 57 1092 250 1559
560 50 32 102 69 116 80 14 12 41 32 59 46 265 196 550 497 749 790 207 306
379 664 461 965 77 279 98 397 125 680 12 134 15 443 15 1920 0 1923 0 1932
-59 2255 -29 160 -96 413 -130 495 -5 11 -14 36 -21 55 -7 19 -16 45 -21 58
-5 12 -13 32 -18 45 -34 88 -145 316 -209 426 -330 573 -817 1037 -1405 1340
-84 43 -172 86 -197 95 -25 10 -61 24 -80 33 -19 8 -44 19 -55 23 -34 15 -169
62 -200 70 -16 5 -64 19 -105 30 -163 47 -304 75 -565 112 -95 13 -4105 21
-4145 8z m4020 -2064 c100 -19 203 -46 215 -57 5 -5 16 -9 25 -9 26 0 243
-113 314 -164 98 -70 237 -206 309 -304 102 -137 189 -318 228 -472 39 -153
39 -126 39 -1983 0 -1189 -3 -1804 -10 -1835 -6 -26 -15 -69 -21 -97 -113
-528 -562 -952 -1107 -1046 -107 -18 -169 -19 -1048 -19 l-934 0 0 -674 c0
-371 -2 -681 -5 -689 -5 -11 -36 -4 -158 36 -84 27 -161 53 -172 57 -11 5 -38
14 -60 21 -22 6 -49 15 -60 19 -17 7 -302 101 -1185 390 -80 26 -194 64 -255
83 -274 87 -534 211 -695 330 -88 66 -280 266 -280 292 0 4 -13 25 -28 48 -84
124 -164 374 -193 602 -37 295 -39 405 -39 2346 0 1217 4 1917 10 1955 19 111
33 169 61 254 134 404 465 733 874 868 56 19 99 30 200 51 22 5 909 9 1970 10
1616 0 1942 -2 2005 -13z"/>
</g>
</svg>
